<?xml version="1.0" encoding="utf-8"?>
<!-- Generator: Adobe Illustrator 24.2.1, SVG Export Plug-In . SVG Version: 6.00 Build 0)  -->
<svg version="1.1" id="Layer_1" xmlns="http://www.w3.org/2000/svg" xmlns:xlink="http://www.w3.org/1999/xlink" x="0px" y="0px"
	 viewBox="0 0 601.9 95" style="enable-background:new 0 0 601.9 95;" xml:space="preserve">
<style type="text/css">
	.st0{fill:#FFFFFF;}
</style>
<g>
	<path class="st0" d="M43.8,28.2C43.8,28.2,43.8,28.2,43.8,28.2l0.7,0C44.3,28.2,44.1,28.2,43.8,28.2z"/>
	<path class="st0" d="M461.4,61.7c6.1-5.5,7-15.9,3-22.9c-1.5-2.6-3.6-4.9-6.7-5.2c-6.6-0.1-12.1,6.3-12.1,13.4
		c-0.6,6.7,2.3,12.9,8.2,15.3C456.7,63.2,459,63.7,461.4,61.7z M455.5,61.3c-2.3,0.1-5.1-2-6.2-4.1c-2.9-6.5-2.9-17,4.6-20.7
		c-1,0.9-1.9,2-2.7,3.2c-1.7,2.4-2.7,5.7-2.2,8.9c0.1,4.3,1,7.7,4.2,10C453.8,59.3,455.8,60.4,455.5,61.3z"/>
	<path class="st0" d="M43.6,29l0.2,0.2c0.2,0.2,0.4,0.2,0.8,0c0.1,0,0.1,0,0.2-0.1c-0.1,0-0.1,0-0.2,0C44.3,29.1,44,29.1,43.6,29z"
		/>
	<path class="st0" d="M601.9,0C403.3,0,198.4,0,0,0v95c175.2,0,353.9,0,529.1,0L601.9,0z M45.7,66c-0.2,0.8-0.5,1.5-0.9,2.1
		c-0.8,1.5-3.1,1.2-4.4,0.9c-3.1-0.4-5.6-0.5-8.9-0.2c-1.5,0.1-2.3,0.1-2.6-0.2c-0.5-0.4,0.5-1.5,0.7-2c0.4-0.5,1-1.7,1.6-1.8
		c1-0.2,1.4,0.6,2.4,0.2c1.3-0.4,1.3-1.8,1.6-2.9c0.1-5.3-0.2-11.6-0.3-17c-0.2-4.1,0.3-7.6-1.4-10c-1.4-0.8-5.5,0.7-5.1-2.1
		c0.2-2.6,3.2-2.1,4.9-1.9c2,0.1,3.1,0.3,5.4,0c1.4-0.3,2.3-0.6,2.6-1.1c0.3-0.4,0.6-0.8,0.9-1c0.5-0.1,0.9-0.8,1.5-1l-10.6-0.3
		c1.4-0.6,4.4-0.2,6.2,0c1.4,0,2.8,0.1,4.4,0.3c0.2,0,0.4,0,0.7,0c0.8,0.2,1.1,0.6,0.3,0.9c0.4,0.1,1.1,0,1.4,0.4
		c0.9,1.2,0.7,2.8,0.4,4.3c0-1.1,0-2.1-0.1-3.2c-0.2-0.8-0.8-1.2-1.8-1.1c-1,0-1.5,0.1-1.6,0.3c-0.6,0.4,0.5,0.8,0.9,1
		c0.9,0.3,1.5,1,1.7,2c0.5,1.1-1,2.1-1.6,2.8c-0.6,1-3,0.4-3.7,0c-0.7-0.3-1.3-0.3-2,0c-0.7,0.4-0.4,1.7-0.5,2.6c0,0,0,19.9,0,19.9
		c0,1.7,0.1,3.6,0.2,5.2c0,0.6,0.1,0.9,0.3,0.9c0.5,0.2,2-1.5,2.6-1.3c0.5-0.1,1.7,1.2,2.2,1C44.9,63.5,46.2,64.3,45.7,66z
		 M41.8,60.9l-0.6,0.2l-0.3-21.6l0.2,9.8c0.2,3,0.1,8.5,0.5,10.7c0,0.2,0,0.3,0,0.4C41.6,60.6,41.5,60.6,41.8,60.9z M46.9,64.9
		c0.2-1-0.9-2.1-1.6-2.6c-0.5,0-1.2-0.2-1.8-0.2c-0.6,0-1.3,0.1-1.4-0.5c0.6-1.7,2.3-0.3,3.6,0.3C46.8,62.3,47,63.7,46.9,64.9z
		 M75.1,27.5c1.3,0.8,2.1,1,3,2.6c1,1.7,2.2,3.8,3.2,5.7c2.4,4.2,4.6,8.5,6.7,12.9c-0.1,0-0.3-0.2-0.8-0.7c-1.1-2.1-2.2-3.7-3.7-6.8
		c-2.8-5-5.7-9.9-9.3-14.1C74.5,27.1,74.8,27.2,75.1,27.5z M75.1,67.4c-0.2,0.5-0.9,1-0.9,1.4c-0.2,0.4-0.3-0.9-0.1-0.9
		c0.3-0.3,0.7-0.6,1.2-0.9l0.7-0.7C75.8,66.7,75.5,67.1,75.1,67.4z M76.4,54.1c0,2.6,0,8.3,0,11c-0.4-6.5-0.8-12.5-1.2-19.4
		c0.2,0.9,0.5,1.8,0.8,2.6c0.1,1,0.6,2.6,0.6,3.4C76.4,51.9,76.4,52.7,76.4,54.1z M77.5,54.2l0.6-1.2l0.2,0.6L77.5,54.2z M91.6,67.4
		c-1.2-1-1.1-3.8-1.8-5.1l-2.7-3.7c-3.8-6.3-8.6-14.8-12.6-21c-0.9-0.6-1.3,0.6-2.1,0.9c-0.4,0.6-0.3,2.1-0.2,3
		c0.1,0.8,0.2,1.6,0.2,2.3c0.3-0.3,0.5-0.6,0.7-1c0.4-0.7,0.6-0.9,0.7-0.8c0.2,1.7-0.3,3.3-0.4,5.5c-0.1,4.3,0.2,10,0.2,14.2
		c0.1,0.7,1.5,2.3,1.2,3.1c-0.2,0.6-1.6,2.2-2.3,2.5c-0.9,0.1-1.7-0.8-2.3-2.8c-0.2-0.5-0.2-1.8-0.2-3.7v-6.3c0.1-4-0.1-8,0.5-11.3
		c0.5-1.9,0.1-2.8,0.7-4.9c0.3-1.1,0.4-1.9,0.3-2.4c-0.3-1.5-1.6-3.5-1.6-5.1c0.1-0.9,3-2,3.5-2.5c0.3-0.3,0.4-0.6,0.5-0.9
		c0.1-0.3,0.1-0.3,0.1-0.1c0,0.5-0.1,1.4,0.4,1.7c0.7,0.6,1.9,4.3,2.6,5c1.8,3.4,4.2,9.3,6.1,12.6c0.4,0.8,1.3,1.9,2.6,3.5
		c0.6,0.8,1.3,1.6,2,2.4c-0.1,0.1-0.2,0.1-0.4,0.1c-0.5,0.3-0.4,0.1-0.9,0.4c-0.8,0.4-0.1,1.6,0,2.4c0.2,1.3,0.8,2.1,1.6,3.3
		c0.6,1.2,1.7,1.6,2.6,0.8c1.1-0.7,0.9-3.2,1.3-4.4c0-4.7,0.6-12.4,0.5-17.1c0.5-1.7-0.9-5-0.9-6.4c0-0.8,1.3-1.3,1.9-1.6
		c0.3-0.2,0.8-0.8,1.3-1.6c0.3-0.4,0.5-0.8,0.9-1.2c0.1,0.4,0.2,0.7,0.4,1.1c0.3,0.6,0.2,1.3,0.5,1.8c0.1,1.4-0.7,2.7-0.8,4.7
		c-0.2,6.1-0.2,14.2-0.4,20.4c0,3.4,0.2,5.8,0.6,7.3c0.4,1.4,0.5,2.6,0.3,3.6C96.4,68.1,92.8,68.1,91.6,67.4z M96,68.9
		c-0.5,0.3-0.8,0.7-1.4,0.7c-0.9,0.3-0.9,0.3-1.6,0.3l3.9-1.7C96.7,68.5,96.4,68.7,96,68.9z M98.3,65.1c0,0.3-0.1,0.5-0.2,0.5v-1.7
		C98.4,64.4,98.3,64.7,98.3,65.1z M98.6,45.3v14.5c0.1,0.5-0.6,1.1-0.6,1.5c0,0.3-0.1,0.6-0.2,0.9V47.4c0-2.9-0.1-8.1,0.2-10.8
		c0.2-2.1,0.1-4.3,0.7-5.7C98.7,36.2,98.6,41,98.6,45.3z M179,62.8c0.2,0.8,0.8,1.8,0.3,2.4c-0.4,0.6-2.2,1.6-3,1.3
		c-1.8-1.3-2.1-3.5-1.7-6.6c0.4-5.3,0.8-13,0.9-18.5c0.1-3.2-0.1-3.1-0.3-5.3c-0.1-1.1-0.3-2.4-0.8-3.3c-0.4-1-2.4-0.5-2.5-0.2
		c-0.2,0.3-0.5,0.5-0.9,0.7c-0.6,0.2-1.8,0-2.6,0c-0.8-0.1-2.1,0.1-2.7-0.4c-0.6-0.3-2.9-2.5-2.7-3.5c0.1-1.1,0.2-1.7,1.4-1.7
		c1.5,0,4.5,0.3,6.5,0.3c3.4,0.1,6.8,0.3,9.8,0.1c0.4-0.1,0.8-0.2,1.2-0.2c1,0,3.2,0.1,4-0.3c0.7-0.2,1.8-1,2.8-1.1
		c1.3-0.2,2.6,0.2,2.9,1.7c0.9,2.8,1.2,4.6-1.4,5.4c-1.5,0.1-1.5,0.8-2.6-0.1c-0.9-0.9-2.5-0.3-3.5-0.2c-1,0.5-0.4,0.4-1.8,0.5
		c-1.3,0-1.1-0.5-2.3-0.5c-0.5,0-0.9,0.1-1.5,0.1v27.2L179,62.8z M191.9,33.8c-0.4,0.4-0.8,0.8-1.4,1.2c-2.3,0.4-5.6,0.6-8,0.6
		c-0.5,0-0.7,0.2-0.7,0.6v3.3c0,6.3,0.1,15.3,0.2,21.2c0.1,1.7,0.2,3.1-0.4,4.2c-0.2,0.4-0.5,0.6-0.8,0.6c0.7-0.9,0.5-2.5,0.5-3.6
		c0-4.1-0.2-8.9-0.2-13.3c-0.1-4-0.2-8.6-0.2-13.7c0.3-0.4,2.8-0.2,3.4-0.2c2.5-0.2,5.3,1.1,7.3-0.9c0.4-0.2,0.7-0.5,0.9-0.9
		C192.4,33.2,192.2,33.4,191.9,33.8z M227.5,43.3l-3.8,0.5c-1.5-0.1-3.5,0.5-4.4-0.6L227.5,43.3z M217.6,68.3c0-0.3,0-0.7,0.1-1
		C217.7,67.6,217.7,68,217.6,68.3z M218.6,60.3c0,1.6-0.1,3.4-0.5,4.9c0-1,0-2.4-0.1-3.1c-0.2-1.7-0.3-4.6-0.2-6.5
		c0-0.6,0.1-0.8,0.2-0.8c0.4,0.2,0.6,0.7,0.6,1.6V60.3z M239.4,31.6c-0.5,0.7-1.3,0.3-1.9,0.8c-0.1,0.2-0.2,0.3-0.2,0.4l0.3,0.5
		c2,1.2-0.3,4.1-0.1,5.9c0,0,0,2.1,0,2.1c0,6.4,0,14.2-0.2,20.4c-0.2,1.9,1.4,4.2,1,6.1c-0.8,0.6-2.7,1.8-3.7,1.5
		c-0.5-0.5-0.7-2-0.4-2.9c0.3-0.9,0.4-2.8,0.3-3.5c0.1-3.1-0.8-8.1-0.9-11.2c-0.1-0.4-0.9-0.7-1.1-0.9l-0.9-0.4
		c-0.1,0.1-0.2,0.2-0.5,0.4c-0.2,0.4-0.4,0.6-0.7,0.6c-1.1,0.7-1.3,0.3-3.3,0.4c-1.5,0-4.1,0-5.6-0.2c-1.2-0.2-3-0.2-3.9-0.2
		c-0.6,0-1.7-0.4-2.4,0.1c-0.5,0.4-0.5,0.9,0,1.5c0.5,0.6,0.7,1,0.7,1.3c0,1.2-0.2,3.8-0.3,5.3l-0.2,4.9c0.2,0.3,0.3,0.6,0.5,1
		c0.3,0.4,0.8,1.1,0.8,1.6c0,1.1-2.3,2.4-3.3,2.6c-0.9,0.1-1.2-0.6-1.6-1.2c-0.2-0.4-0.6-1.3-0.6-1.7c-0.1-3.7,0.4-8.3,0.4-12.1
		c0-2.2,0.1-2.9-0.4-5.6c-0.6-3.2-0.4-7.3-0.5-10.6c0-1.7,0.2-2.9,0.5-3.6c1.1-2.5,4-2.6,6.3-2.6c0.4,0,0.3,1.1,0.3,1.4l-0.2,8.6
		c0-1.5,0-3-0.1-4.5c-0.1-1.1-0.3-3.7-0.5-4.4c-0.1,0-0.4,0.1-1,0.3c-0.3,0.1-0.5,0.1-0.6,0.1c0.1,0.1,0.1,0.2,0.2,0.4
		c0.5,2,0.3,2.1-0.2,4.4c-0.4,2.3-0.2,4.6,0,7c0.1,1,0.6,1.3,1.3,1.1c0.8-0.4,0.9-1.8,1.1-2.6c0,0.2,0,0.5,0.1,0.8
		c0.2,0.7,0.2,1.2,0.6,1.9c0.7,1.9,2,1.5,4.2,1.6c1.5,0.2,5.4-1.1,6.6-0.5c0.7,0.6,1.3,1.7,2.3,1.9c0.9,0.6,1.1-0.1,1.4-0.9
		c0.8-2.1,0.6-5.3,0.6-7.6c0.1-2-0.8-5.4,0.1-7.3c0.4-0.8,2-1.5,3-1.9c0.9-0.4,1.8-0.8,2.6-1.3C239.7,30.9,239.7,31.3,239.4,31.6z
		 M240.3,53.1c-0.1,0.4-0.2,0.7-0.2,1.1c-0.1,0.4-0.1,0.8-0.1,1.2c0.1,2.5,0.1,5.1,0.1,7.5c-0.1,0.4,0,2-0.2,2.6
		c0-2.2,0.1-5.6-0.1-7.7c-0.3-1.8-0.2-4.4-0.2-6.3c-0.1-5,0.2-10,0.3-15c0,4.6,0,8.7,0.3,12.8C240.4,51.7,240.7,51.6,240.3,53.1z
		 M284.7,68.8c-1.4,0.9-1.8,0.9-3.2,0.7c-1.5-0.2-3.8-0.8-5.2-1c-4.5,0-10.9,0-15.1-0.1c-0.9-0.1-1.9-2-1.9-2.6
		c-0.1-1.1-0.4-3.7-0.5-5.2c-0.4-3.8-0.7-7.9,0.3-11.3c0.3-3.6-0.9-7.3-0.5-11c0.3-2.4,0.1-6.1,1.7-7.9c3.2-0.8,8.4-0.1,11.6-0.1
		c2.1-0.1,5-0.3,7-1c0.7-0.4,2.6-0.9,3.3-0.5c1,0.3,2.2,2.8,1.9,3.8c-0.3,1.2-0.9,2.5-2.5,2.5c-1.4,0.4-3.8-0.3-5.1-0.2
		c-1.7,0-5.4,0.2-7.6,0.2c-2,0.2-4.2,0.3-6.6,0.3c-0.3,0.8-0.1,4.6-0.2,5.8c0,0,0,5.1,0,5.1c0.6,0,1.1-0.1,1.5-0.2
		c0.9-0.1,1.8,0.1,2.6-0.3c1.8,0.1,4.1,0.6,6,0.5c1-0.1,3.2-1.3,4.3-1c1.1,0.7,2.9,0.6,2.5,2.6c-0.2,1.9,0,3.3-2.3,3.5
		c-1.7,0.4-1.8,0.2-3-0.4c-2-0.4-6-0.1-7.9,0c-0.7,0.5-2.2-0.4-2.7,0.2c-0.2,0.1-0.4,0.4-0.5,1.2c-0.2,1.8-0.6,4.8-0.2,6.4
		c0.3,0.7,0.4,1.9,0.4,2.5c0.1,0.4-0.9,2.3-0.1,2.6c0.6,0.6,3-0.4,3.7-0.3c3.1,0,8.2,1.3,11.3,0.9c1.3,0,5.5-2.1,6.8-1.6
		C286,63,286,66,286.1,67C286,67.7,285.5,68.2,284.7,68.8z M277.9,44.8l-2.2-1.5c0.3,0.1,0.6,0.2,0.9,0.4
		C277.1,43.9,277.5,44.3,277.9,44.8z M265.9,39.5c0.1,0.8,0.2,1.6,0.5,2.5c0.2,1.2,1.9,1,2.8,1.2c0.8,0.2,1.4,0.2,2.1,0.2
		c-1,0.1-2.7,0-4,0.3c-1,0.1-2.3,0.1-3.7,0.1c0.1-0.2,0.2-0.4,0.3-0.7c0.2-1.7-0.1-4.3,0.2-6.1h7.4c-0.9,0.2-1.8,0.3-2.5,0.5
		c-0.9,0.4-2.2,0.3-2.8,0.7C266,38.3,265.9,38.7,265.9,39.5z M271.4,53.1c-1.4,0-3.9,0.5-5.3,0.5c1.1-0.4,2.7-0.6,3.9-0.7
		C270.7,52.9,271.1,52.9,271.4,53.1z M265.5,60.4l-0.9,0.2c-0.1-2.5-0.5-5.5-0.5-7.9c0.2,0.5,0.4,1,0.5,1.6c0.5,1.4,0.5,2.7,0.8,4.4
		C265.5,59.6,265.4,60.1,265.5,60.4z M360.7,54.4c-0.1,0.2-0.4,0.9-0.5,1.2c-0.3,0.4-0.3,1.1-0.3,2c0,1.8,0.8,6.7-0.2,8.9
		c-0.2,0.4-0.4,0.7-0.6,0.9c0.1-0.2,0.1-0.3,0.2-0.5l0.4-0.8c0.1-2-0.1-4.6-0.4-6.7c-0.2-0.9-0.2-2.3-0.2-3c0-0.2,0.3-0.8,0.9-1.6
		c0.3-0.3,0.6-0.7,0.9-1.2C360.9,53.9,360.8,54.1,360.7,54.4z M379.6,66.7c-0.1,0.8-0.5,1.5-1.2,1.9c-1.2,0.8-2.2,0.8-2.7,0
		c-0.9-0.8-1.4-2.7-2-3.7c-0.7-0.8-1.3-2.4-2.1-3.5c-0.8-1.3-2.1-2.6-2.8-3.8c-1.4-2.3-3.8-5.6-5.4-7.7c-0.3-0.2-0.7-0.4-0.9-0.6
		l-0.3-0.2c-0.6,0.7-1,1.3-1.4,1.8c-0.6,0.8-1.5,1.6-1.9,2.3c-0.8,0.6-1.2,1.3-1.7,2.3c-0.3,0.4-0.4,0.7-0.3,0.8
		c0.1,0.1,0.2,0.2,0.2,0.3c-0.1,1.7,0.2,3.9,0.3,5.5c0.2,0.7,0.1,2.2,0.2,2.9c0,0.5,0.5,1.3,0.5,1.9c0,0.9-1.4,1.8-2.3,2.2
		c-1,0.3-1.7,0.1-2-0.8c-0.1-3.3-0.1-8.6-0.1-12.1c0-1.3,0.7-2.2,0.3-3.7c-0.1-0.9-0.2-3.6-0.2-4.4c-0.4-2.5-0.4-5.8-0.6-8.4
		c-0.1-1.2-0.4-2.9-0.4-4c0-0.7-0.7-1.6,0-2.3c0.2-0.8,1.8-2,2.5-2.3c0.4-0.1,0.4-0.4,0.9-0.4c0,0,0.5,0,0.5,0
		c0.3-0.3,0.5-0.5,0.8-0.7c0.5-0.4,0.9-0.6,1-0.6c0.2,0.3,1.2,1.7,1.3,2c0.2,2.4,0.2,6.5,0,8.9c-0.2,0.3-0.3,1-0.4,1.4
		c-0.2,0.4-0.3,0.6-0.3,0.8c0.1-0.9,0.2-1.9,0.3-2.9c0.3-2.5-0.1-5.7-0.2-7.5c0-0.4-0.1-0.6-0.4-0.9c-0.2-0.4-2.1-0.7-2.1,0.2
		c0.1,0.2,0.2,0.5,0.4,0.8c0.1,0.5,0.4,1.1,0.4,1.6c0.1,0.5-1,3.3-1,3.7c0,0.3,0.4,1.6,0.4,1.9c0,0.9,0,1.8,0,2.8c0,1,0,2,0,3
		c-0.1,0.7,0.2,1.6-0.1,2.1c-0.4,0.2-1.3-0.9-1.5-1.2c-0.3-0.1-0.4,0.4-0.4,1.2c0,0.9,0.1,1.8,0.2,2.6c0.3,1.6,0.4,2.3,0.5,2.3
		c1.6-1.1,4.4-4,6.2-5.3c0.6-0.7,1.8-3.1,2.7-3.9c1.7-2.3,5.2-5,6.9-7.3c0.8-0.6,2.8-3.8,3.6-4.4c0.6-0.3,0.9-0.5,1-0.7l0.7-0.2
		c0.1-0.2,0.2-0.3,0.4-0.4c0.4-0.2,0.6-0.4,0.6-0.5c0.2,0,2.3,0.3,2.3,0.8c0.4,0.2,0.5,1.9,0.3,2.4c0-0.3-0.1-0.6-0.2-0.9l-0.2-0.9
		c-0.4,0-0.9,0-1.2-0.1c-0.6-0.2-0.6-0.9-1.1-0.5l-0.4,0.2c0.2,0.4,0.4,0.8,0.7,1.2c0.2,0.3,0.7,1.2,0.5,1.6
		c-1.8,2.2-4.6,4.8-6.8,6.6c-1.3,1-4.7,4.9-5.6,5.9c-0.4,0.4-0.5,0.5-0.5,0.9c1.4,1.7,2.7,3.3,3.8,4.9c1.5,1.7,3.7,4.7,4.7,6.1
		c1.1,1.8,3,4.2,4.2,5.8c0.7,0.5,1.6,0.3,1.6,1.2C379.8,65.3,379.7,65.9,379.6,66.7z M381.2,66.2c-0.1,0.5-0.3,0.9-0.5,1.3
		c0-0.1,0.1-0.2,0.2-0.5c0.3-1.3,0-2.4-0.2-3.6c-1.4-2-3.3-5.1-5-7c-0.9-1.3-2.7-4.2-3.8-5.8c-0.5-0.9-1.1-1.7-1.6-2.6
		c3.3,4.3,8.3,11,10.9,15.5C381.4,64.4,381.4,65.3,381.2,66.2z M403,27.5c0.7,0.3,1.1,0.7,1.8,1.1c1.1,0.8,1.9,2.7,2.8,4.1
		c2.1,4.1,4.4,7.9,6.5,12.1c0.6,1.3,1.2,2.6,1.9,3.8c-0.1,0-0.3-0.2-0.8-0.7c-1.1-2.1-2.2-3.7-3.7-6.8c-2.8-5-5.7-9.9-9.3-14.1
		C402.3,27.1,402.6,27.2,403,27.5z M403,67.4c-0.2,0.5-0.9,1-0.9,1.4c-0.2,0.4-0.3-0.9-0.1-0.9c0.3-0.3,0.7-0.6,1.2-0.9l0.7-0.7
		C403.6,66.7,403.3,67.1,403,67.4z M404.2,54.1c0,2.6,0,8.3,0,11c-0.4-6.5-0.8-12.5-1.2-19.4c0.2,0.9,0.5,1.8,0.8,2.6
		c0.1,1,0.6,2.6,0.6,3.4C404.3,51.9,404.2,52.7,404.2,54.1z M405.3,54.2l0.6-1.2l0.2,0.6L405.3,54.2z M419.5,67.4
		c-1.2-1-1.1-3.8-1.8-5.1l-2.7-3.7c-3.8-6.3-8.6-14.8-12.6-21c-0.9-0.6-1.3,0.6-2.1,0.9c-0.4,0.6-0.3,2.1-0.2,3
		c0.1,0.8,0.2,1.6,0.2,2.3c0.3-0.3,0.5-0.6,0.7-1c0.4-0.7,0.6-0.9,0.7-0.8c0.2,1.7-0.3,3.3-0.4,5.5c-0.1,4.3,0.2,10,0.2,14.2
		c0.1,0.7,1.5,2.3,1.2,3.1c-0.2,0.6-1.6,2.2-2.3,2.5c-0.9,0.1-1.7-0.8-2.3-2.8c-0.2-0.5-0.2-1.8-0.2-3.7v-6.3c0.1-4-0.1-8,0.5-11.3
		c0.5-1.9,0.1-2.8,0.7-4.9c0.3-1.1,0.4-1.9,0.3-2.4c-0.3-1.5-1.6-3.5-1.6-5.1c0.1-0.9,3-2,3.5-2.5c0.3-0.3,0.4-0.6,0.5-0.9
		c0.1-0.3,0.1-0.3,0.1-0.1c0,0.5-0.1,1.4,0.4,1.7c0.7,0.6,1.9,4.3,2.6,5c1.8,3.4,4.2,9.3,6.1,12.6c0.4,0.8,1.3,1.9,2.6,3.5
		c0.6,0.8,1.3,1.6,2,2.4c-0.1,0.1-0.2,0.1-0.4,0.1c-0.5,0.3-0.4,0.1-0.9,0.4c-0.8,0.4-0.1,1.6,0,2.4c0.2,1.3,0.8,2.1,1.6,3.3
		c0.6,1.2,1.7,1.6,2.6,0.8c1.1-0.7,0.9-3.2,1.3-4.4c0-4.7,0.6-12.4,0.5-17.1c0.5-1.7-0.9-5-0.9-6.4c0-0.8,1.3-1.3,1.9-1.6
		c0.3-0.2,0.8-0.8,1.3-1.6c0.3-0.4,0.5-0.8,0.9-1.2c0.1,0.4,0.2,0.7,0.4,1.1c0.3,0.6,0.2,1.3,0.5,1.8c0.1,1.4-0.7,2.7-0.8,4.7
		c-0.2,6.1-0.2,14.2-0.4,20.4c0,3.4,0.2,5.8,0.6,7.3c0.4,1.4,0.5,2.6,0.3,3.6C424.2,68.1,420.7,68.1,419.5,67.4z M423.8,68.9
		c-0.5,0.3-0.9,0.7-1.4,0.7c-0.9,0.3-0.9,0.3-1.6,0.3l3.9-1.7C424.5,68.5,424.2,68.7,423.8,68.9z M426.2,65.1c0,0.3-0.1,0.5-0.2,0.5
		v-1.7C426.2,64.4,426.1,64.7,426.2,65.1z M426.5,45.3v14.5c0.1,0.5-0.6,1.1-0.6,1.5c0,0.3-0.1,0.6-0.2,0.9c0,0,0-14.6,0-14.6
		c0-2.9-0.1-8.1,0.2-10.8c0.2-2.1,0.1-4.3,0.7-5.7C426.5,36.2,426.5,41,426.5,45.3z M447.4,64.1c-7.7-6.6-6.9-20.6-2.5-28.7
		c2.2-4.7,8.5-5.8,12.9-6c1.1,0,1.7-0.1,1.7-0.2c-1.1-2.3,3,1.1,3.9,2c2.6,2.5,4.7,6.4,6.3,11.4c1.5,6.4-0.3,13.8-3,19.7
		C462.7,69.7,453.5,69.2,447.4,64.1z M472.7,51.2c-1.1,10.7-5.1,16.1-15.6,18.9c3.4-1,6.8-2.8,9.6-5.4c4.1-4.1,4.7-7.3,5.6-12.5
		c0.6-5.3-0.7-11.7-2.3-16.7c-1.5-3.8-6.3-6.8-9.6-8.6c0,0-2.9-0.9-2.9-0.9c0.7,0,1.5,0.1,2.3,0.4c1.9,0.6,3.6,1.6,5.6,2.7
		c4.2,3.1,6.3,9.6,7.5,14.3C473,45.5,473.1,48.5,472.7,51.2z M475.5,55.5c-0.1-0.4-0.2-0.7,0.2-1.1l0.2,1.5
		C475.7,55.7,475.5,55.6,475.5,55.5z M507.2,37.7c1.3,2.3,3.3,6.1,4.1,8.4c-0.5-0.9-1.4-3.1-2-4.1c-0.4-0.8-1.2-2.3-1.9-3.3
		c-0.4-0.8-0.9-1.7-1.5-2.7C506.1,36.1,506.6,36.6,507.2,37.7z M494.3,34.8c0.2,1.6,0.9,4.7,1,5.9c0,0.6-0.2,1.6-0.5,2.2
		c-0.2,0.6-0.4,1.2-0.5,1.9c0-1.3-0.1-3.1,0.2-4.3c0.2-1.5-0.2-4.5-0.3-6.3c-0.3-1.6-0.5-3.2-0.7-4.9L494.3,34.8z M502.2,53.5
		c-0.2,0.7-0.3,1.7-0.9,2.2c-1.4,3-3.3,8-5.4,10.7c-0.8,0.9-2.2,2-2.3,0.9c0.3-0.2,0.5-0.3,0.7-0.3c0.2,0,0.6-0.4,1.3-1.3
		c1.1-1.9,2.9-5.4,4-7.8c1-1.9,2-3.9,3-6.2C502.6,52.4,502.4,53,502.2,53.5z M513.8,64.4c-1.2-1.7-2.5-5-2.9-7
		c-0.5-1.4-2.2-3.6-3.1-5.2c-1-1.6-2.4-3.8-3.3-4.7c-0.5-0.4-1.8-2.8-2.6-2.4c-0.9,0-1.2,1.9-0.8,2.5c0.2,1.1,1.2,0.9,1,2.1
		c-0.1,1.7-1.1,2.1-2.3,3.5c-1.7,2-2.7,5.1-3.7,7.6c-0.9,2.6-2.2,5.9-5.1,4.6c-1.1-0.5-0.9-2.1-0.9-3.1c-0.4-6.1-1.6-12.9-2.3-19.4
		c-0.5-3.5-0.8-7.2-1.2-10.3c-0.2-1.2-0.2-2-0.1-2.3c0.2-0.9,1.7-3.4,2.7-3.3c0.5,0.3,2,1.9,1.9,2.6c0,1-0.1,4.8-0.4,5.8
		c0.1,2.8,0.7,7.2,1,10.2c0.2,3.6,0.4,5.8,1.2,9.1c0.1,0.6,0.3,1,0.5,1.1c0.3,0.2,0.3,0.2,0.2,0.1c-0.1-0.2,0.1-0.5,0.5-0.9
		c0.8-1.8,2.5-4.1,3-6.1c0.3-0.9,2.2-1.6,2.6-2.5c0.4-1.1-0.1-1.1,0.2-2.3c0.4-1,0.6-2.8,0.9-3.8c-0.2-1.1,1.9-3,2.5-3.5
		c0.3-0.1,0.9-0.8,1.1-1.1c0.5-0.1,0.8,1.2,0.9,1.5c0.4,0.9,0.9,3.5,0.9,4.6c0.2,1.3,1.7,2.7,2.3,3.9c0.6,1,2.8,3.6,1.8,4.6
		c-0.2,0-0.5,0-0.9,0c-1.2,0.1,0,2.1,0.1,2.9c0.2,1.4,1.6,1.9,2.8,2.5c0.6,0.4,0.9,0.3,0.9-0.3c0-0.6,0.1-1.4,0.3-2.5
		c0.6-4.6,1.5-12,1.9-16.9c0.5-3.8-0.3-4.5,1.4-7.4c0.8-1.2,1.3-1.7,1.7-1.7c0.8,0.1,1.9,1.6,2.2,2.4c0.3,1.5-1,4.3-1.7,5.8
		c-0.8,2.4-1,7.6-1.3,10.9c-0.3,4.5-0.8,9.5-1.1,13.4c-0.1,1.7,0.6,4.9-1.3,5.8C514.7,65.3,514.3,65.1,513.8,64.4z M521.8,38.2
		c-0.2,2.3-0.5,6.1-0.5,7.9c-0.5,4.7-1.4,12.5-1.8,17.3c-0.1,2.2-0.8,3.4-2,3.7c-0.6,0.2-1.3-0.7-1.7-1.3c0,0,0.1,0,0.1,0.1
		c0.2,0.2,0.3,0.4,0.5,0.5c0.6,0.2,1.2,0,1.8-0.5c0.4-0.3,0.6-0.9,0.7-1.6c0.3-2.2,0.1-1.7,0.5-4.5c0.8-7.2,1.3-14.2,2.1-21.4
		c0.3-2,0.5-4.3,0.7-6.8C522.2,33.9,522,36.2,521.8,38.2z"/>
</g>
</svg>
