<?xml version="1.0" encoding="utf-8"?>
<!-- Generator: Adobe Illustrator 24.2.1, SVG Export Plug-In . SVG Version: 6.00 Build 0)  -->
<svg version="1.1" id="Layer_1" xmlns="http://www.w3.org/2000/svg" xmlns:xlink="http://www.w3.org/1999/xlink" x="0px" y="0px"
	 viewBox="0 0 286 30.1" style="enable-background:new 0 0 286 30.1;" xml:space="preserve">
<style type="text/css">
	.st0{fill:#FFFFFF;}
</style>
<g>
	<polygon class="st0" points="121.6,0 121.6,30.1 144.5,0 	"/>
	<g>
		<path class="st0" d="M277.5,14.9h2.9v15h2.7v-15h2.9v-2.5h-8.5V14.9z M273.8,23.4v2.5c0,1.2-0.5,1.7-1.4,1.7
			c-0.9,0-1.4-0.4-1.4-1.7v-9.4c0-1.2,0.5-1.7,1.4-1.7c0.9,0,1.4,0.5,1.4,1.7v1.9h2.6v-1.7c0-2.8-1.4-4.4-4.1-4.4s-4.1,1.6-4.1,4.4
			v9.1c0,2.8,1.4,4.4,4.1,4.4s4.1-1.6,4.1-4.4v-2.3H273.8z M262.1,14.9h4.7v-2.5h-7.5v17.5h7.5v-2.5h-4.7v-5.1h3.8v-2.5h-3.8V14.9z
			 M252.3,29.9c0.4,0,0.8,0,1.3,0c2.1,0,3.9-0.9,3.9-4.4V12.4h-2.7v13.3c0,1.3-0.7,1.7-1.6,1.7c-0.3,0-0.6,0-0.9,0V29.9z
			 M242.8,25.7c0,2.8,1.5,4.4,4.2,4.4c2.7,0,4.2-1.6,4.2-4.4v-9.1c0-2.8-1.5-4.4-4.2-4.4c-2.7,0-4.2,1.6-4.2,4.4V25.7z M245.6,16.5
			c0-1.2,0.5-1.7,1.4-1.7c0.9,0,1.4,0.5,1.4,1.7v9.4c0,1.2-0.5,1.7-1.4,1.7c-0.9,0-1.4-0.5-1.4-1.7V16.5z M237.2,14.9
			c1,0,1.4,0.5,1.4,1.8v1.7c0,1.4-0.6,1.8-1.6,1.8h-1.1v-5.4H237.2z M241.6,29.9c-0.3-0.6-0.3-1.3-0.3-2.1v-2.7
			c0-1.8-0.5-3.1-1.8-3.7v-0.1c1.2-0.6,1.8-1.7,1.8-3.5v-1.4c0-2.7-1.2-4-4.1-4h-4.1v17.5h2.7v-7.1h0.9c1.2,0,1.8,0.6,1.8,2.2v2.7
			c0,1.4,0.1,1.7,0.2,2.1H241.6z M227.6,14.9c0.9,0,1.3,0.4,1.3,1.6v2.6c0,1.2-0.5,1.6-1.3,1.6h-1.3v-5.9H227.6z M227.6,12.4h-4
			v17.5h2.7v-6.6h1.3c2.7,0,4.1-1.5,4.1-4.3v-2.3C231.7,14,230.4,12.4,227.6,12.4"/>
		<polygon class="st0" points="141.6,12.2 141.6,14.7 144.5,14.7 144.5,29.7 147.2,29.7 147.2,14.7 150.1,14.7 150.1,12.2 		"/>
		<polygon class="st0" points="157.3,12.2 157.3,19.7 154.1,19.7 154.1,12.2 151.4,12.2 151.4,29.7 154.1,29.7 154.1,22.2 
			157.3,22.2 157.3,29.7 160.1,29.7 160.1,12.2 		"/>
		<polygon class="st0" points="161.8,12.2 161.8,29.7 169.3,29.7 169.3,27.2 164.6,27.2 164.6,22.1 168.4,22.1 168.4,19.6 
			164.6,19.6 164.6,14.7 169.3,14.7 169.3,12.2 		"/>
		<path class="st0" d="M208.6,14.9h2.9v15h2.7v-15h2.9v-2.5h-8.5V14.9z M201.4,22.4h3.1v7.5h2.8V12.4h-2.8v7.5h-3.1v-7.5h-2.7v17.5
			h2.7V22.4z M193.2,22.7h1.2v3.2c0,1.2-0.5,1.7-1.4,1.7c-0.9,0-1.4-0.4-1.4-1.7v-9.4c0-1.2,0.6-1.7,1.4-1.7c0.9,0,1.4,0.5,1.4,1.7
			v1.9h2.6v-1.7c0-2.8-1.4-4.4-4.1-4.4c-2.7,0-4.1,1.6-4.1,4.4v9.1c0,2.8,1.4,4.4,4.1,4.4c2.7,0,4.1-1.6,4.1-4.4v-5.5h-3.8V22.7z
			 M184.4,29.9h2.7V12.4h-2.7V29.9z M175.8,29.9h7.3v-2.5h-4.5v-15h-2.7V29.9z"/>
	</g>
	<g>
		<path class="st0" d="M94.7,21.8l-0.6,1.1c-0.3,0.6-0.6,1-0.9,1.2c-0.3,0.3-0.7,0.4-1.2,0.4c-0.4,0-0.7-0.1-1.1-0.2v1.1
			c0.4,0.1,0.8,0.2,1.2,0.2c0.7,0,1.3-0.2,1.8-0.6c0.5-0.4,1-1,1.5-2l5.8-10.7h-1.5L97,17.5c-0.1,0.2-0.4,0.7-0.6,1.3
			c-0.3,0.6-0.5,1.2-0.7,1.7h0c0-0.5,0-1.1-0.1-1.8c-0.1-0.8-0.1-1.3-0.2-1.7l-0.6-4.6h-1.4L94.7,21.8z M90.2,15.4
			c0,0.9-0.1,1.8-0.4,2.7c-0.3,0.8-0.7,1.5-1.2,1.9c-0.5,0.5-1,0.7-1.5,0.7c-0.6,0-1-0.2-1.3-0.5c-0.3-0.3-0.5-0.8-0.5-1.4
			c0-0.8,0.2-1.7,0.5-2.5c0.3-0.8,0.8-1.5,1.3-2c0.6-0.5,1.1-0.8,1.6-0.8C89.7,13.5,90.2,14.1,90.2,15.4 M89.5,20.9
			c0.7-0.6,1.2-1.3,1.6-2.3c0.4-1,0.6-2.1,0.6-3.2c0-1-0.2-1.7-0.7-2.3c-0.4-0.6-1.1-0.8-1.8-0.8c-0.5,0-1.1,0.2-1.6,0.5
			c-0.5,0.3-1,0.8-1.5,1.4H86c0.3-1,0.5-1.8,0.6-2.5s0.4-1.7,0.7-3.1h-1.4l-2.8,13h1l0.6-1.4h0.1c0.2,0.5,0.5,0.9,0.9,1.2
			c0.4,0.3,0.9,0.4,1.4,0.4C88,21.8,88.8,21.5,89.5,20.9 M70.5,18.7c0-0.9,0.1-1.8,0.4-2.6c0.3-0.8,0.7-1.5,1.2-1.9
			c0.5-0.5,1-0.7,1.6-0.7c0.6,0,1,0.2,1.3,0.5c0.3,0.3,0.5,0.8,0.5,1.4c0,0.8-0.2,1.7-0.5,2.5c-0.3,0.8-0.8,1.5-1.3,2
			s-1.1,0.8-1.6,0.8C71,20.6,70.5,20,70.5,18.7 M71.3,13.1c-0.7,0.5-1.2,1.3-1.6,2.3c-0.4,1-0.6,2.1-0.6,3.3c0,1,0.2,1.7,0.7,2.3
			c0.4,0.5,1,0.8,1.8,0.8c0.5,0,1-0.1,1.5-0.4c0.5-0.3,1-0.8,1.6-1.5h0.1l-0.2,1.7h1.2l2.8-13h-1.4l-0.7,3c-0.2,0.7-0.3,1.4-0.4,2.3
			H76c-0.5-1.1-1.3-1.6-2.3-1.6C72.8,12.3,72,12.6,71.3,13.1 M66.1,13.8c0.2,0.2,0.3,0.4,0.3,0.7c0,0.6-0.3,1.1-1,1.4
			c-0.7,0.3-1.7,0.5-2.9,0.5h-0.1c0.3-0.9,0.7-1.7,1.2-2.2c0.5-0.5,1-0.8,1.6-0.8C65.5,13.5,65.9,13.6,66.1,13.8 M65.3,21.6
			c0.4-0.1,0.9-0.3,1.4-0.5v-1.2c-0.6,0.3-1,0.5-1.4,0.6c-0.4,0.1-0.7,0.2-1.1,0.2c-0.7,0-1.2-0.2-1.6-0.6c-0.3-0.4-0.5-1-0.5-1.7
			l0-0.7h0.3c1.7,0,3-0.3,4-0.9c0.9-0.6,1.4-1.4,1.4-2.4c0-0.7-0.2-1.2-0.6-1.6c-0.4-0.4-1.1-0.6-1.9-0.6c-0.8,0-1.6,0.3-2.3,0.8
			c-0.7,0.5-1.2,1.3-1.7,2.2c-0.4,1-0.6,2-0.6,3c0,1.1,0.3,1.9,0.9,2.5c0.6,0.6,1.4,0.9,2.4,0.9C64.4,21.8,64.9,21.7,65.3,21.6
			 M56.9,20.4c-0.2-0.2-0.2-0.4-0.2-0.7c0-0.3,0-0.6,0.2-1.1l1.1-5h2.3l0.2-1.1h-2.3l0.5-2.1h-0.8l-1,1.9l-1.5,0.7L55,13.5h1.4
			l-1.1,5c-0.1,0.5-0.1,0.9-0.1,1.3c0,0.7,0.2,1.2,0.6,1.5c0.4,0.3,0.9,0.5,1.6,0.5c0.2,0,0.4,0,0.7-0.1c0.3-0.1,0.5-0.1,0.7-0.2
			v-1.1c-0.5,0.1-0.9,0.2-1.2,0.2C57.3,20.6,57.1,20.5,56.9,20.4 M52.8,12.5c-0.3,0.1-0.6,0.3-0.8,0.5c-0.3,0.2-0.6,0.6-1,1.1h-0.1
			l0.2-1.7H50l-2,9.2h1.4l0.9-4.2c0.2-0.7,0.4-1.4,0.7-2c0.3-0.6,0.7-1.1,1.2-1.4c0.4-0.3,0.9-0.5,1.4-0.5c0.3,0,0.6,0,0.9,0.1
			l0.3-1.3c-0.3-0.1-0.6-0.1-1-0.1C53.4,12.3,53.1,12.3,52.8,12.5 M44.9,18.2c-0.3,0.7-0.6,1.3-1.1,1.7c-0.5,0.4-1,0.6-1.6,0.6
			c-0.7,0-1.2-0.2-1.5-0.6c-0.4-0.4-0.5-1-0.5-1.7c0-0.9,0.1-1.7,0.4-2.4c0.3-0.7,0.6-1.3,1.1-1.7c0.5-0.4,1-0.6,1.6-0.6
			c0.6,0,1.1,0.2,1.4,0.6c0.3,0.4,0.5,0.9,0.5,1.6C45.2,16.6,45.1,17.5,44.9,18.2 M41,13.1c-0.7,0.5-1.2,1.2-1.6,2.1
			c-0.4,0.9-0.6,1.9-0.6,3c0,1.1,0.3,2,0.9,2.6c0.6,0.6,1.4,0.9,2.5,0.9c0.9,0,1.6-0.3,2.3-0.8c0.7-0.5,1.2-1.2,1.6-2.2
			c0.4-0.9,0.6-1.9,0.6-3c0-1.1-0.3-2-0.9-2.6c-0.6-0.6-1.4-0.9-2.5-0.9C42.4,12.3,41.7,12.6,41,13.1 M35.6,15.4
			c0,0.9-0.1,1.8-0.4,2.7c-0.3,0.8-0.7,1.5-1.1,1.9c-0.5,0.5-1,0.7-1.5,0.7c-0.6,0-1-0.2-1.3-0.5c-0.3-0.3-0.5-0.8-0.5-1.4
			c0-0.8,0.2-1.7,0.5-2.5c0.3-0.8,0.8-1.5,1.3-2c0.6-0.5,1.1-0.8,1.6-0.8C35.1,13.5,35.6,14.1,35.6,15.4 M34.9,20.9
			c0.7-0.5,1.2-1.3,1.6-2.3c0.4-1,0.6-2.1,0.6-3.3c0-1-0.2-1.7-0.7-2.3c-0.4-0.5-1-0.8-1.8-0.8c-1.1,0-2.1,0.6-3.1,1.9h-0.1l0.2-1.7
			h-1.2l-2.8,13.3h1.4c0.6-2.8,0.9-4.4,1-4.6c0-0.3,0.1-0.4,0.1-0.6l0-0.3h0.1c0.2,0.5,0.5,0.9,0.9,1.2c0.4,0.3,0.9,0.4,1.4,0.4
			C33.4,21.8,34.2,21.5,34.9,20.9 M25.7,15.4c0,0.9-0.1,1.8-0.4,2.7c-0.3,0.8-0.7,1.5-1.1,1.9c-0.5,0.5-1,0.7-1.5,0.7
			c-0.6,0-1-0.2-1.3-0.5c-0.3-0.3-0.5-0.8-0.5-1.4c0-0.8,0.2-1.7,0.5-2.5c0.3-0.8,0.8-1.5,1.3-2c0.6-0.5,1.1-0.8,1.6-0.8
			C25.2,13.5,25.7,14.1,25.7,15.4 M25,20.9c0.7-0.5,1.2-1.3,1.6-2.3c0.4-1,0.6-2.1,0.6-3.3c0-1-0.2-1.7-0.7-2.3
			c-0.4-0.5-1-0.8-1.8-0.8c-1.1,0-2.1,0.6-3.1,1.9h-0.1l0.2-1.7h-1.2l-2.8,13.3h1.4c0.6-2.8,0.9-4.4,1-4.6c0-0.3,0.1-0.4,0.1-0.6
			l0-0.3h0.1c0.2,0.5,0.5,0.9,0.9,1.2c0.4,0.3,0.9,0.4,1.4,0.4C23.6,21.8,24.3,21.5,25,20.9 M10.6,12.4l-1.2,5.6
			c-0.1,0.6-0.2,1.1-0.2,1.4c0,0.7,0.2,1.3,0.6,1.7c0.4,0.4,1,0.6,1.7,0.6c0.5,0,1-0.1,1.5-0.4s1-0.8,1.6-1.5h0.1l-0.2,1.7h1.2
			l1.9-9.2h-1.4l-0.8,4c-0.2,0.9-0.5,1.6-0.8,2.3c-0.4,0.6-0.8,1.1-1.3,1.4c-0.5,0.3-1,0.5-1.4,0.5c-0.8,0-1.2-0.4-1.2-1.2
			c0-0.3,0-0.7,0.1-1.2l1.3-5.8H10.6z M7.1,16.9c-0.1-0.3-0.4-0.6-0.7-0.9c-0.3-0.3-0.8-0.7-1.7-1.2c-0.6-0.3-1-0.6-1.2-0.8
			c-0.2-0.2-0.4-0.4-0.5-0.6C3,13.2,3,12.9,3,12.6c0-0.7,0.2-1.2,0.7-1.6c0.5-0.4,1.1-0.6,1.8-0.6c0.4,0,0.8,0.1,1.3,0.2
			C7.2,10.8,7.6,11,8,11.2l0.6-1.3C8,9.7,7.5,9.5,7,9.4C6.5,9.3,6,9.2,5.5,9.2c-1.2,0-2.2,0.3-2.9,1c-0.7,0.7-1.1,1.5-1.1,2.5
			c0,0.6,0.2,1.2,0.5,1.7c0.3,0.5,0.9,0.9,1.8,1.4c0.8,0.5,1.3,0.8,1.6,1.2c0.3,0.3,0.4,0.7,0.4,1.1c0,0.7-0.3,1.3-0.8,1.7
			c-0.5,0.4-1.2,0.6-2.1,0.6c-1,0-1.9-0.2-2.8-0.7v1.4c0.4,0.2,0.8,0.3,1.3,0.4c0.4,0.1,1,0.1,1.6,0.1c1.4,0,2.5-0.3,3.3-1
			c0.8-0.6,1.2-1.6,1.2-2.7C7.3,17.6,7.2,17.2,7.1,16.9"/>
	</g>
</g>
</svg>
