<svg id="Layer_1" data-name="Layer 1" xmlns="http://www.w3.org/2000/svg" xmlns:xlink="http://www.w3.org/1999/xlink" viewBox="0 0 656 189.83"><defs><style>.cls-1{fill:none;}.cls-2{clip-path:url(#clip-path);}</style><clipPath id="clip-path"><rect class="cls-1" width="656" height="189.83"/></clipPath></defs><g class="cls-2"><path d="M516.87,102.26c.18,1-.44,1.34-1.26,1.52-4.39,1-8.79,1.91-13.25,2.52a1.11,1.11,0,0,1-1.45-1c-.21-1-.44-2-.62-3a1.32,1.32,0,0,1,1.2-1.75q6.52-1.26,13-2.57c.84-.17,1.31.09,1.51.91C516.31,100,516.59,101.14,516.87,102.26Z"/><path d="M410.31,76.48l-12.55-1.92a1.11,1.11,0,0,1-1.08-1.4c.13-1.08.27-2.15.46-3.22a1.22,1.22,0,0,1,1.59-1.11c4.36.68,8.73,1.3,13.09,2,1.13.17,1.7.74,1.36,2a13.8,13.8,0,0,0-.45,2.39C412.62,76.38,412,76.84,410.31,76.48Z"/><path d="M471.83,110.92a1.36,1.36,0,0,1-1.77-1.19c-.18-.8-.33-1.59-.5-2.39-.32-1.47.33-2.09,1.77-2.3,4-.56,8.06-1.16,12.07-1.87,1.51-.26,2.09.16,2.28,1.67.49,3.85.55,3.86-3.18,4.45C479,109.85,475.39,110.37,471.83,110.92Z"/><path d="M204.9,161c-.47.1-.93-.25-1.07-1.08,0-.2-.12-.39-.15-.59-.4-3.83-1.33-3.95,3-4.56a55.34,55.34,0,0,0,9.9-2.38c1.36-.46,2-.06,2.42,1.25,1.35,3.83,1.38,3.82-2.59,4.92A87.43,87.43,0,0,1,204.9,161Z"/><path d="M154.25,55.87c.19,2.93.19,2.91-2.69,3.1a32.83,32.83,0,0,0-10.05,2.46c-1.23.49-1.8.19-2.37-1-1.87-3.76-1.84-3.92,2.2-5.26a42.54,42.54,0,0,1,9.72-2.14C154.06,52.81,154.06,52.84,154.25,55.87Z"/><path d="M93.07,120.77c-.11,3.24-.39,3.44-3.67,3-3.58-.43-7.17-.79-10.77-1.14-1.77-.17-2.38-1-1.86-2.72a10.89,10.89,0,0,0,.22-1.62c.15-1.12.65-1.64,1.92-1.49,3.92.45,7.86.75,11.79,1.18C93.15,118.3,93.15,118.35,93.07,120.77Z"/><path d="M15.4,109.67c.15-.87.34-2,.54-3.14.16-.85.72-1.09,1.51-1l13.44,2.36A1.16,1.16,0,0,1,32,109.38c0,.13-.05.26-.07.4-.58,4.22-.58,4.19-4.76,3.4-3.41-.64-6.82-1.2-10.24-1.78C16.05,111.25,15.23,111.1,15.4,109.67Z"/><path d="M146.24,143.14c.47.26.9.45,1.29.72a55.81,55.81,0,0,0,10,5.49c1.7.7,1.83,1.59,1.13,3.14-1.48,3.23-1.41,3.22-4.64,1.73a86.36,86.36,0,0,1-10-5.6c-1.11-.71-1.35-1.46-.47-2.47S144.86,143.73,146.24,143.14Z"/><path d="M124.62,121.42c1-.09,1.43.62,1.89,1.31a64,64,0,0,0,7.42,9.46c1,1,.78,1.66-.12,2.52-3.7,3.52-2.94,2.85-5.6-.13-2.27-2.55-4.19-5.35-6.26-8.05-1.27-1.65-1.19-2.72.74-3.59A9.2,9.2,0,0,0,124,122Z"/><path d="M544,88.07a.94.94,0,0,1,1,.41,2.33,2.33,0,0,1,.3.53c1.88,4.68,2.55,3.83-2.08,5.67-3.23,1.28-6.49,2.46-9.7,3.75-1.33.54-2,.21-2.4-1.16-1.13-3.9-2-3.55,2.37-5.09,3.14-1.1,6.21-2.41,9.31-3.63Z"/><path d="M167.69,102c-1.59-.85-2.41-2.31-3.34-3.6-.68-.94.5-1.42,1-1.92a33.32,33.32,0,0,0,7-8.48c.62-1.15,1.27-1.33,2.45-.8,3.91,1.73,4,1.8,1.62,5.43a41.18,41.18,0,0,1-7.24,8.29A18.29,18.29,0,0,1,167.69,102Z"/><path d="M574.58,77.94c.11,1-.5,1.21-1,1.51-3.73,2.12-7.48,4.21-11.2,6.34-1.2.69-1.9.44-2.57-.82-1.81-3.44-1.85-3.39,1.64-5.32,3-1.65,6-3.3,8.86-5.08,1.29-.79,2.06-.69,2.72.68C573.48,76.23,574.1,77.13,574.58,77.94Z"/><path d="M438.52,177.73a3.36,3.36,0,0,0,0,.36c-.25,3.86-.55,4-4.32,3.2a56.51,56.51,0,0,1-10.92-3.87c-1.28-.58-1.51-1.24-.8-2.5,1.91-3.36,1.86-3.39,5.34-1.87a35,35,0,0,0,9.13,2.76C438.26,176,438.69,176.66,438.52,177.73Z"/><path d="M112.49,94c1.91-.65,2.52.56,2.73,2.49a38.62,38.62,0,0,0,3,10.12c.54,1.37.3,2-1.12,2.6-3.75,1.52-3.74,1.59-5-2.25-1.08-3.21-2.35-6.37-2.74-9.77C109,94,109,94,112.49,94Z"/><path d="M124.62,121.42l-.58.6-13.34,1.82c-2.33.32-2.55.13-2.66-2.27-.17-3.51-.17-3.54,3.3-3.77a71.3,71.3,0,0,0,9.1-1.22c2.84-.56,2.85-.5,3.52,2.28C124.17,119.72,124.4,120.57,124.62,121.42Z"/><path d="M351.79,76.21c.16.79-.3,1.06-1,1.26a113,113,0,0,0-12.24,4.42c-.92.39-1.44.17-1.94-.76-2.1-4-2.15-4,2-5.57,3.17-1.2,6.44-2.15,9.59-3.4,1.9-.75,2.62,0,3,1.68C351.35,74.64,351.58,75.42,351.79,76.21Z"/><path d="M483.55,145.14a50.6,50.6,0,0,1-4.47,13.73c-.36.72-.88.75-1.52.43-.92-.45-1.83-.92-2.76-1.34s-1.22-1-.73-2.09a40.82,40.82,0,0,0,3.2-9.45c.74-3.74,1.88-4.35,5.42-2.9C483.4,143.81,483.61,144.26,483.55,145.14Z"/><path d="M455.63,113.14c.13.89-.18,1.33-.87,1.54a113.22,113.22,0,0,0-12.67,4.45c-.74.32-1.14,0-1.42-.67-.45-1.06-.92-2.12-1.42-3.16-.39-.83,0-1.26.72-1.58a104.33,104.33,0,0,1,12.85-4.56c1.13-.33,1.82,0,2.07,1.2C455.1,111.35,455.41,112.32,455.63,113.14Z"/><path d="M611.66,49.34A12.33,12.33,0,0,1,608,46c-.71-1,.49-1.56,1-2.14A100.91,100.91,0,0,0,616.6,35c.84-1.13,1.58-1.24,2.64-.32,2.9,2.51,3.82,1.65.74,5.48-2.22,2.75-4.58,5.38-7,8A18.25,18.25,0,0,1,611.66,49.34Z"/><path d="M440.73,85.46c-.32-.11-.78-.25-1.21-.44a97.46,97.46,0,0,0-11.11-4c-1.4-.43-1.79-1-1.31-2.51,1.46-4.44,1-3.74,4.92-2.49a101.6,101.6,0,0,1,10.11,3.79c1.39.61,1.55,1.27.89,2.47-.43.77-.73,1.61-1.1,2.41A1.08,1.08,0,0,1,440.73,85.46Z"/><path d="M320.89,84.3c1,.21,1.14,1,1.5,1.64,1.79,3.06,1.76,3-1.3,4.89s-5.88,3.68-8.76,5.62c-1.09.73-1.75.86-2.64-.37-2.39-3.27-2.45-3.22.83-5.44,3-2,6-4,9.18-5.72C320.11,84.69,320.53,84.48,320.89,84.3Z"/><path d="M154,109.93c.13,1-.45,1.28-1,1.56a100.37,100.37,0,0,1-12.55,5.45c-.94.33-1.37,0-1.69-.85-1.75-5-1.85-3.83,2.3-5.61,2.94-1.26,5.9-2.5,8.76-4,1.53-.77,2.37-.54,3,1C153.2,108.42,153.68,109.25,154,109.93Z"/><path d="M62.29,116c-.08.55-.22,1.63-.42,2.7a1.1,1.1,0,0,1-1.46,1c-4.47-.89-8.95-1.75-13.43-2.62a1.2,1.2,0,0,1-1-1.64c.22-1,.49-2,.66-3s.68-1.19,1.59-1c2.87.58,5.75,1.11,8.63,1.67,1.47.28,2.93.59,4.4.85C62.08,114.17,62.62,114.53,62.29,116Z"/><path d="M484,126.61c0,.56,0,1.22-.65,1.33a37.43,37.43,0,0,1-4.22.53c-.66.05-.88-.53-1-1.1a44.31,44.31,0,0,0-3.54-11.86c-.4-.87-.27-1.42.68-2,4-2.26,4-2.31,5.66,1.88A55.37,55.37,0,0,1,484,126.61Z"/><path d="M127.54,69.28a2.05,2.05,0,0,1-.92,1.38,39.68,39.68,0,0,0-7.56,9.08c-.57,1-1.18,1.07-2.17.58-4-2-4-2.1-1.48-5.68a54.21,54.21,0,0,1,6.94-8c1.2-1.16,2.2-1.51,3.24.17C126.16,67.68,127.15,68.3,127.54,69.28Z"/><path d="M596.71,55.85A14.94,14.94,0,0,1,600,59.5c.64,1.09-.64,1.52-1.24,2-3.12,2.53-6.33,4.95-9.46,7.47-1.13.9-1.84,1-2.78-.35-2.25-3.16-2.29-3.08.81-5.46,2.76-2.11,5.45-4.31,8.18-6.46C595.88,56.42,596.27,56.17,596.71,55.85Z"/><path d="M457.51,88.12c.57.34,1,.56,1.38.83a78.48,78.48,0,0,1,10.16,8.48c.86.83,1,1.55,0,2.34a4,4,0,0,0-.29.29c-2.71,2.66-2.7,2.66-5.36.09a50.27,50.27,0,0,0-7.74-6.3c-1.31-.84-1.42-1.64-.49-2.77C456,90.12,456.43,88.86,457.51,88.12Z"/><path d="M630.25,23.83a15.84,15.84,0,0,1-3.84-2.2c-.62-.53-.15-1.15.14-1.66a78.78,78.78,0,0,0,5.11-11.13c.43-1.2,1.05-1.61,2.29-1.07,3.95,1.7,4.3.39,2.34,5.25a99.81,99.81,0,0,1-4.42,9.43C631.54,23.07,631.28,23.88,630.25,23.83Z"/><path d="M248.44,143.3c0,.79-.5,1-1,1.33-3.72,2.28-7.51,4.44-11.43,6.37-1.24.6-1.87.41-2.5-.88-1.69-3.46-1.74-3.4,1.62-5.23,2.93-1.6,5.89-3.17,8.73-4.92,1.48-.91,2.31-.67,3,.8C247.4,141.68,248,142.52,248.44,143.3Z"/><path d="M452.62,176.12c-.11-.61.39-.89,1-1.1a29.17,29.17,0,0,0,10.44-5.8c.78-.68,1.34-.58,2.08.1,3.2,3,3.18,3.37-.35,6a38.22,38.22,0,0,1-9.51,5c-2.18.8-2.5.62-3.09-1.64C453,177.89,452.85,177.09,452.62,176.12Z"/><path d="M170.44,57.77a10.87,10.87,0,0,1,1.06.68,26.45,26.45,0,0,1,8,12.53c.28.89.12,1.45-.87,1.64-.39.08-.76.28-1.15.4-3,.93-3,.93-4.16-2a18.94,18.94,0,0,0-5.15-7.71c-1.1-.95-1.18-1.68-.28-2.69S169.17,58.38,170.44,57.77Z"/><path d="M261.64,135c-1.19-.47-1.49-1.64-2.23-2.39-1.45-1.44-1.06-2.37.53-3.48,3.23-2.25,6.34-4.67,9.43-7.12,1.06-.84,1.7-.8,2.48.27,2.76,3.75,3.09,2.81-.73,5.73q-4,3-8,6C262.68,134.41,262.14,134.7,261.64,135Z"/><path d="M405.66,151.12c.45-.8-.35-2.5,1-2.83a7.55,7.55,0,0,1,4.39.51c.62.24.48.92.47,1.45A20.47,20.47,0,0,0,414,161a1.29,1.29,0,0,1-.51,2c-4.53,2.78-3.55,2.77-5.67-1.44C406.21,158.38,405.86,154.86,405.66,151.12Z"/><path d="M298.25,105.71c.1.92-.44,1.19-.85,1.52-3.31,2.63-6.65,5.21-9.94,7.87-1,.84-1.69.78-2.5-.3-3-4-2.79-2.81.6-5.61,2.67-2.22,5.49-4.26,8.17-6.47,1.13-.92,1.85-.86,2.62.37C297,104.06,297.69,105,298.25,105.71Z"/><path d="M188.61,159.22c0,2.89-.18,3.1-3,2.82a115.3,115.3,0,0,1-11.56-1.37c-1.52-.3-1.87-.95-1.64-2.36.58-3.63.81-3.87,4.39-3.13a70.64,70.64,0,0,0,8.93,1C188.62,156.35,188.62,156.25,188.61,159.22Z"/><path d="M425.06,122.1c1.43.94,2.08,2.4,2.93,3.67.66,1-.31,1.48-.92,2a61.19,61.19,0,0,0-9,8c-.69.77-1.27.87-2.05.15-3.39-3.16-4.17-2.09-.41-5.94a75.29,75.29,0,0,1,7.84-6.87C424,122.74,424.5,122.46,425.06,122.1Z"/><path d="M382,70.62c.37,2.09-.45,2.77-2.55,2.79-3.74,0-7.49.36-11.22.69-1.49.13-2.2-.39-2.31-1.82-.05-.75,0-1.51-.15-2.24-.21-1.19.43-1.6,1.43-1.76a76,76,0,0,1,13.49-.45C382.7,67.88,381.7,69.64,382,70.62Z"/></g></svg>