<?xml version="1.0" encoding="utf-8"?>
<!-- Generator: Adobe Illustrator 22.1.0, SVG Export Plug-In . SVG Version: 6.00 Build 0)  -->
<svg version="1.1" id="Layer_1" xmlns="http://www.w3.org/2000/svg" xmlns:xlink="http://www.w3.org/1999/xlink" x="0px" y="0px"
	 viewBox="0 0 1024 492" style="enable-background:new 0 0 1024 492;" xml:space="preserve">
<style type="text/css">
	.st0{fill:#FFFFFF;}
	.st1{fill:#222222;}
</style>
<g>
	<g>
		<polygon class="st0" points="635.9,259.3 621.1,245.5 621.7,244.6 629.8,246.3 645.1,226.3 680.5,198.6 723.3,156.5 726.9,160.5 
			735.2,147.2 712.8,127.4 648.6,50.8 528.9,153.3 528.7,153.1 530.3,145 510.4,129.7 482.6,94.3 440.6,51.6 444.6,47.9 431.2,39.6 
			411.5,62 334.9,126.2 430.3,237.7 406.1,258.4 398.3,273.1 390.2,271.5 323.7,339.6 346.5,358.9 410.3,436 515.5,351.8 
			522.1,344.8 542.5,368.7 557.2,376.6 555.6,384.6 623.7,451.1 643,428.3 720,364.5 		"/>
	</g>
	<g>
		<g>
			<path class="st1" d="M624.2,461.6L547.9,387l1.3-6.7l-11.2-6l-16.1-18.8l-1.9,1.9l-110.7,88.5l-67.9-82l-28.2-23.9l74.6-76.3
				l6.7,1.3l6-11.2l19.8-17l-95.5-111.5l81.7-68.5l23.4-26.5l26.5,16.3l-5.5,5.1l37.4,38.1l27.2,34.7l19,14.6l115-98.5l68.5,81.7
				l26.5,23.3l-16.3,26.5l-5.1-5.5l-38.1,37.4l-34.6,27.2l-14.1,18.4l5.4,5.1L730,365.6l-82,67.9L624.2,461.6z M563.4,382.2
				l59.8,58.4l15.3-17.8l71.6-59.3l-79.4-99.4l-19-17.7l6.9-9.7l8.3,1.6l13.9-17.7l35-27.5l47.7-46.9L707.4,132l-59.6-71.1
				L529.3,162.3l-8.3-5.9l1.4-8.4l-17.7-13.9l-27.5-35l-46.9-47.7l-14.3,16.1L345,127.1l95.4,111.4L411.8,263l-9.7,18.2l-9.5-1.9
				l-58.4,59.8l17.8,15.3l59.3,71.6l99.4-79.4l11.6-12.5l24.8,28.9l18.2,9.7L563.4,382.2z M723.8,146.6l2,2.2l0.2-0.3L723.8,146.6z
				 M432.6,48.9l-1.9,2.2l2.2-2L432.6,48.9z"/>
		</g>
		<g>
			<path class="st1" d="M544.9,218.7c0.8,1,1.3,2.2,1.6,3.5c0.3,1.3,0.5,2.5,0.6,3.5c0.1,1.1,0.5,1.6,1.2,1.5c1.2-0.1,3.2,0,5.9,0.2
				c0.2,0,1-0.1,2.3-0.3c1.4-0.1,2.3-0.2,2.8-0.2c0.2,0,0.3-0.1,0.5-0.1c0,0,0-0.2,0.1-0.6c0-0.1-0.1-0.5-0.3-1
				c-0.1-1-0.3-3-0.8-5.9c0-0.4-0.2-0.9-0.5-1.6c-0.3-0.7-0.4-1.1-0.3-1.1c-0.1,0.2-0.2,0-0.2-0.6c-0.1-0.6-0.1-0.9-0.1-0.7
				c0,0-0.2-0.4-0.7-1c-0.5-0.6-0.8-1.2-0.8-1.6c0-0.1-0.5-0.7-1.4-1.7c-0.9-1-1.4-1.5-1.5-1.5c-0.6-0.5-0.9-0.9-1-0.9
				c-0.4,0.1-1.5-0.2-3.3-1.1c-1.8-0.8-3-1.4-3.7-1.6c-0.5-0.1-1.3-0.2-2.3-0.2c-1,0-1.5-0.1-1.4-0.1c0,0-0.8,0.1-2.3,0.2
				c-1.1,0.4-1.7,0.6-1.8,0.7c-5,1.7-8.1,3.3-9.4,4.7c0,0-0.5,1-1.3,3.1c-0.8,2-1.2,3-1.2,3c0,0.6-0.1,1-0.3,1.1
				c-0.2,0.1-0.3,0.2-0.3,0.3c0,0-0.1,0.7-0.2,2.1c-0.1,1.4-0.3,2.1-0.5,2.1c0.1,6.7,0.8,11.6,2.2,14.5c0.1,0.2,0.8,0.9,2.3,2.2
				c1.4,1.3,3,2.6,4.7,4.2c1.7,1.5,3.4,3,4.9,4.3c1.5,1.4,2.4,2.3,2.7,2.6c0,0,0.7,0.7,2.1,2.2c1.4,1.4,2.4,2.3,2.8,2.5
				c0.2,0.1,0.6,1,1.4,2.5c0.8,1.6,1.2,2.4,1.2,2.3c0.6,5.2,0,8.3-2,9.2c-2.1,1.1-4.2,0.8-6.1-0.8c-0.3-0.8-0.5-1.3-0.7-1.6
				c0.1,0.2,0-0.1-0.3-0.7c-0.4-0.7-0.6-1-0.8-1.1c0,0,0-0.3-0.1-1.1c0-0.8-0.1-1.3-0.1-1.7c0,0.3,0-0.1-0.1-1.1
				c-0.1-1-0.1-1.4-0.1-1.2c0-0.2,0-0.6-0.1-1.1c0-0.5-0.1-0.9-0.1-1.1c0,0.3-0.2,0.4-0.8,0.3c0,0-1,0.1-2.9,0.4
				c-1.9,0.3-3.3,0.5-4.1,0.6c0,0-0.6,0-1.9,0.1c-1.3,0.1-2,0.3-2,0.5c0,0-0.1,0-0.4,0.1c-0.3,0.1-0.4,0.1-0.4,0.1
				c0.2,0.4,0.4,0.7,0.4,0.8c0,0.8,0.1,1.3,0.1,1.4c0-0.1,0,0.3,0.1,1.4c0.1,1.1,0.1,1.5,0.1,1.3c0.2,2.9,0.4,4.6,0.7,4.9
				c0.3,0.3,0.7,1.6,1.3,3.9c0.4,1.4,2.9,3.4,7.5,6c0,0,0.5,0.1,1.5,0.4s1.6,0.5,1.7,0.5c0,0,0.2,0.1,0.7,0.1c0.5,0,0.8,0.1,0.9,0.1
				c0,0,0.6,0,1.9-0.1c1.3,0,2,0,1.9,0c1.8-0.1,3.7-0.4,5.8-0.7c2.1-0.4,3.8-1.3,5.1-2.8c1.9-1.9,2.8-2.8,2.9-2.8
				c0-0.1,0.4-1.4,1.4-4c1-2.6,1.5-4.2,1.7-5c0.2-1.3,0.4-2.4,0.5-3.5c0.1-1,0.1-2.3,0.1-3.7c0,0-0.3-0.9-0.9-2.7
				c-0.6-1.8-1.3-3-2-3.5c-0.1,0-0.6-0.7-1.6-1.9c-0.9-1.2-1.8-2.1-2.4-2.7c-0.8-0.6-1.8-1.7-3.1-3.2c-1.3-1.6-1.9-2.3-1.9-2.3
				c-0.4,0.3-2.1-1-5.2-3.9c-3.1-2.8-5.1-4.8-5.8-6c-0.1-0.5-0.2-0.8-0.5-1.1c-0.3-0.2-0.4-0.3-0.3-0.3c-0.2-0.2-0.5-0.8-0.9-1.7
				c-0.4-1-0.6-1.7-0.6-2.2c0,0.1,0-0.4,0-1.4c0-1,0-1.5,0-1.4c-0.2-0.2-0.1-0.9,0.2-2.2c0.3-1.3,0.7-2.1,1.3-2.5
				c-0.4,0.2-0.2,0,0.5-0.6c0.7-0.6,1-1,1-1.1c-0.1,0,0-0.1,0.4-0.2c0.4-0.1,0.6-0.2,0.7-0.2C542.7,217.2,544.1,217.6,544.9,218.7
				 M478,210.9c-0.1,0-0.3,0.1-0.4,0.2c0.1,0,0.2,0.4,0.4,1.2c0.2,0.8,0.3,1.2,0.3,1.1c0,0.1,0.1,0.6,0.3,1.5c0.2,1,0.3,1.4,0.3,1.4
				c0.1,0.1,0.3,0.3,0.6,0.7c0.3,0.4,0.4,0.6,0.2,0.4c0.4,0.4,0.5,0.7,0.5,1c-0.1,0.3,0,0.4,0,0.4c-0.5,0.7-0.6,1.3-0.5,1.8
				c0,0.1,0.7,2.7,2.1,7.9c0,0.3,0.3,1.6,0.8,4c0.5,2.4,0.8,3.6,0.9,3.6c0,0,0,0.2,0.2,0.7c0.2,0.5,0.2,0.6,0.2,0.6
				c0.1,0.2,0.6,2.2,1.4,6.1c0.8,3.9,1.5,5.7,1.9,5.5c0.2,0.1,0.3,0.6,0.3,1.4c0,0.8,0,1.2,0.1,1.4c-0.6,0.9-0.6,2,0.1,3.2
				c0.9,1.7,1.4,3.1,1.5,4.2c0,1.1,0,1.7,0,1.7c0.2,0.2,0.3,0.4,0.3,0.8c0,0.4,0.1,0.7,0.3,1.1c0.1,0.3,0.5,2.1,1.2,5.3
				c0.7,3.2,1,4.7,1,4.7c0.8,0.5,1.4,1.9,2,4.1c0.6,2.3,0.8,3.4,0.8,3.3c0.1,1.3,0.2,2.1,0.5,2.4c0.2,0.3,0.3,0.4,0.3,0.4
				c0,0.2,0.4,0.2,1.2,0.1c0.2,0,0.4,0,0.8-0.1c0.4,0,0.7,0,1-0.1l0.5,0c0,0.1,0.4,0.2,1.2,0.5c0,0,1.4-0.1,4.2-0.2s4.9-0.2,6.2-0.3
				c-0.1,0,0.1,0.1,0.6,0.3c0.5,0.2,0.7,0.1,0.7-0.2c0,0,0-0.3-0.1-1.1c-0.1-0.8-0.2-1.1-0.2-1.1c0.1-0.1,0.3-0.9,0.6-2.4l0.4-0.2
				c0-0.4-0.1-0.6-0.1-0.6c-0.3-1.9-0.1-5.6,0.7-11.1c0.8-5.5,1.1-9.3,1-11.3c0,0,0-0.5,0.1-1.5c0.1-1,0.1-1.5,0.1-1.5
				c0.1-0.1,0.3-0.3,0.4-0.6s0.2-0.5,0.1-0.4c0.3,0,0.4-0.6,0.3-1.6c-0.1-1.1-0.2-1.7-0.1-1.9c0.7-1.2,1-3.1,0.9-5.7
				c-0.1-2.7-0.1-4-0.1-4.1c0.3-0.5,0.6-2.2,0.9-5.2c0.3-2.9,0.6-6,0.9-9.1c0.3-3.2,0.5-5.9,0.7-8.2c0.2-2.3,0.3-3.1,0.4-2.4
				c-0.1-1,0.2-2.5,0.8-4.6c0,0-0.3-0.1-1-0.2c-0.7-0.1-1.3-0.2-1.8-0.2c-0.7,0-2.7,0.3-5.8,0.9c-3.1,0.6-4.7,0.8-4.7,0.8
				c0.1,0.9,0.1,1.9,0.1,2.9c0,1,0,1.9,0.1,2.8c0-0.2-0.1,0.2-0.2,1.3c-0.1,1.1-0.2,1.7-0.3,1.8c0,0.1-0.1,1.6-0.3,4.6
				c-0.2,3-0.4,6.4-0.6,10c-0.2,3.7-0.4,7-0.7,10.1c-0.2,3.1-0.3,4.7-0.4,4.8c-0.5,1-0.8,3.6-0.9,7.6c-0.1,4.1-0.2,6.9-0.2,8.5
				c-0.1,1.6-0.2,2-0.3,1.2c-0.1-0.8-0.1-1-0.1-0.8c0-0.3-0.1-1.2-0.4-2.7c-0.2-1.5-0.5-2.4-0.7-2.6c-0.2,0.1-0.6-0.8-1-2.7
				c-0.4-1.9-0.8-4.1-1.3-6.6c-0.4-2.4-0.8-4.7-1.2-6.9c-0.4-2.2-0.6-3.4-0.7-3.8c-0.3-0.7-0.7-2.2-1.2-4.5c-0.5-2.2-0.9-4.6-1.4-7
				c-0.5-2.4-0.9-4.5-1.2-6.4c-0.3-1.9-0.5-2.8-0.5-2.9c-0.9-1.4-1.4-3-1.4-4.9c0-1.9-0.2-3.2-0.6-3.9l-2.5,0.4
				c-1,0.1-2.9,0.1-5.7,0c-2.8-0.1-4.4,0.1-4.8,0.6C478.6,210.9,478.4,210.9,478,210.9"/>
		</g>
		<g>
			<path class="st1" d="M316.7,193.6c0.2,1.5,0.3,2.4,0.2,2.5c-0.1-0.1,0-0.1,0.2,0.2c0.2,0.2,0.3,0.4,0.2,0.6
				c-0.2,2.7-0.3,4.4-0.3,5.1c0.1,1.1,0.7,1.6,1.8,1.4c1.1-0.2,1.7-0.2,1.6-0.2c1.5-0.1,4.3-0.4,8.4-1c0.1,0,0.2,0.1,0.4,0.2
				c0,1.7,0,2.6,0,2.5c0,0.2,0,0.5,0,0.7c0,0.2,0,0.5,0,0.7c0.2,3,0.6,6.6,1.1,10.8c0.5,4.2,0.8,6.2,0.8,6.2
				c0.1,0.8,0.2,2.9,0.4,6.2c0.2,3.4,0.4,6.9,0.6,10.7c0.2,3.8,0.3,7.2,0.4,10.2c0.1,3.1,0,4.7-0.2,4.9c0,0.6,0.2,2,0.5,4.3
				s0.4,3.4,0.4,3.3c-0.2,0.2-0.3,0.4-0.2,0.6c0.1,0.2,0.1,0.5-0.2,0.8l0.6,0c0.3,0,0.6,0,1-0.1c0.4,0,0.7,0,1-0.1
				c0.5-0.2,0.9-0.3,1.2-0.3c0,0,1.5-0.1,4.7-0.4c3.1-0.2,4.7-0.4,4.7-0.4c0.3-2.2,0.2-3.6-0.2-4.2c-0.1-0.1-0.2-1.4-0.3-3.7
				c-0.1-2.4-0.2-4.9-0.3-7.8c-0.1-2.8-0.2-5.4-0.3-7.8c-0.1-2.4-0.1-3.6-0.2-3.8c-0.6-1.7-0.9-3.7-0.8-6.2c0.1-2.5,0.1-3.9,0-4.5
				c-1.1-4-1.6-6.6-1.4-7.9c0.1-1.3,0.1-3.9-0.2-7.7c0,0.1,0-0.1-0.1-0.5c-0.1-0.4-0.1-0.6-0.1-0.7c-0.4-0.3-0.4-1.8-0.1-4.3
				c0-0.1,0-1,0.1-2.8c0-0.1,0.1-0.1,0.4-0.2c-0.1,0,0,0,0.4,0c-0.1,0,0.9-0.1,3-0.3c2-0.2,3-0.3,2.9-0.3c0.2,0.1,0.7,0,1.5-0.1
				c0.8-0.2,1.4-0.3,1.6-0.3c0.3,0,0.5-0.1,0.6-0.2c0.5,0.3,0.9,0.2,1.4-0.3c0.2-0.2,0.3-0.5,0.3-0.8c-0.3,0.1-0.4-0.3-0.5-1.1
				c-0.1-0.8-0.1-1.3-0.1-1.2c0.3-0.1,0.2-1.5-0.1-4.2c-0.3-2.7-0.5-4.2-0.4-4.2c-1.2,0.2-2.9,0.4-5.2,0.5c-2.2,0.1-3.3,0.1-3.3,0.1
				c-2.1,0.1-5,0.4-8.6,0.8c-3.7,0.4-5.5,0.6-5.4,0.6c-0.6,0-1.7,0.2-3.2,0.4c-1.5,0.2-2.5,0.3-2.9,0.2c-0.3-0.6-1.7-0.7-4-0.2
				c-2.3,0.5-3.6,0.8-4,0.9C316.5,191.3,316.5,192.1,316.7,193.6 M293.4,210.6c0,0.3,0,0.4,0,0.4c0,0.3,0.1,0.5,0.2,0.6
				c0.2,0.1,0.2,0.3,0.3,0.4c0,0.4,0,0.8,0.1,1.2c0,0.4,0,0.6,0,0.6c0.2,0.5,0.2,0.8,0.2,0.8l0.9,3.9c0.6,1.1,0.9,2.6,1,4.6
				c0,0.5,0.2,1.5,0.4,2.9c0,0.2,0.2,0.8,0.5,1.5c0,0.2,0.1,0.4,0.2,0.8c0,0.1,0,0.3,0.1,0.5c0.1,0.2,0.1,0.3,0.1,0.2
				c0.1,0.9,0.2,1.8,0.6,2.7c0.3,0.9,0.5,1.3,0.5,1.2c0,0.5,0.1,1.1,0.2,1.9c0.1,0.8,0.2,1.1,0.1,0.8c0,0,0.2,0.3,0.5,0.9
				c0.3,0.6,0.5,0.8,0.5,0.8c-0.1,0-0.1,0.2,0.2,0.4c-0.4,0.8-0.5,1.3-0.5,1.6c0,0.1,0,0.3,0,0.6c0.3,0,0.4,0.1,0.4,0.4
				c0.1,0.1,0.2,0.3,0.3,0.6c0.1,0.3,0.2,0.4,0.2,0.2c0,0.1,0,0.4,0.1,1c-0.1,0-0.3,0-0.6,0c0,0.2-0.1,0.2-0.4,0.3
				c-0.1,0-0.2,0-0.3,0c-0.1,0-0.2,0-0.1,0c0,0-0.1,0-0.2,0c-0.1,0-0.2,0-0.1,0c-1,0.1-2.4,0.1-4.2,0.1c-1.8,0-2.6,0-2.5,0
				c-0.1,0-0.3,0-0.5,0c-0.2,0-0.3,0-0.3,0c-0.1,0-0.2-0.2-0.5-0.6c0.4-0.4,0.6-0.7,0.6-0.8c-0.1-1.7-0.1-3.6,0-5.6
				c0.1-2,0.2-2.8,0.2-2.3c-0.2-3.5,0.1-7.6,1-12.5c0.9-4.8,1.2-8.5,0.7-11C293.4,210.1,293.4,210.3,293.4,210.6 M284,195.3
				c-0.1-0.9-0.3,0-0.6,2.7c-0.4,2.7-0.4,3.8-0.2,3.2c-0.3,0.4-0.6,2.5-0.9,6.4c-0.3,3.8-0.5,5.4-0.5,4.8c0,0.2,0,0.5,0.1,0.8
				c0,0.4,0,0.5,0,0.6c0,0.7,0,1,0.1,1c0.2,0.1,0.3,0.4,0.3,0.8c0,0.4,0,0.7,0,0.8c0-0.1,0,0,0,0.4c0,0.4,0,0.5,0,0.4
				c0-0.1,0,0.1,0,0.6c0,0.5,0,0.6,0.1,0.6c-0.1,0.7-0.5,2.3-1.1,4.9c-0.6,2.6-0.8,3.6-0.6,3c-0.1,0.1-0.1,1.1-0.1,2.8
				c0,1.7,0,2.6,0.1,2.6c-0.2,0.1-0.3,0.4-0.4,1s-0.1,0.8-0.2,0.6c-0.1,0.2-0.2,0.5-0.1,1.1c0.1,0.6,0.1,0.8,0.1,0.7
				c0.1,0.7,0,2-0.2,3.9c-0.2,1.8-0.3,2.7-0.4,2.5c-0.3,0.8-0.5,1.6-0.5,2.2l0,2.3c0,0.2,0,0.8-0.1,1.8c0,0,0,0.3,0.1,1
				c0.1,0.7,0.1,1.1,0,1.1c-0.1,0.3-0.4,1.4-0.9,3.4c0,0.1,0,0.4,0,0.7c0,0.4,0,0.5,0,0.5c0,0.6,0.1,1.2,0.1,2
				c0.1,0.8,0.1,1.2,0.1,1.1c0,0.1,0,0.3,0,0.7c0,0.4,0,0.6,0,0.7c-0.2-0.2-0.4,0.1-0.5,0.8c-0.1,0.7-0.2,1-0.2,0.7
				c-0.8,0.8-0.9,1.3-0.5,1.7c-0.3,1.3-0.3,2-0.3,2.2c0,0,0,0.1,0,0.4c0,0.3,0,0.4,0.1,0.4c0,0-0.2,0.4-0.5,1.1
				c-0.3,0.8-0.4,1-0.4,0.9c0,0.3,0.4,0.3,1,0.2c0.7-0.1,0.9-0.1,0.8,0.1c0.1,0.3,0.4,0.4,1,0.4c0.1,0,3.4-0.3,9.8-0.8
				c0,0,0.1-0.5,0.3-1.6c0.3-0.8,0.3-1.4,0.1-1.6c0-0.2,0.1-1.7,0.5-4.5c0.4-2.8,0.6-4.4,0.8-4.8c0.3,0,0.7-0.1,1.1-0.1
				c0,0,0.3,0,1-0.1c0.7,0,1.3-0.1,1.7-0.1c0.9-0.1,2.2-0.2,3.9-0.6c1.7-0.3,2.5-0.5,2.6-0.5c-0.1,0,0.4,0,1.3-0.1
				c0,0.3,0.1,0.5,0.1,0.5c0.1,0,0.1,0.1,0.1,0.3c0.8,3,1.2,4.5,1.3,4.4c-0.1,0.1,0.2,1.1,0.7,2.9c0.6,1.8,0.9,2.9,1,3.3
				c0.2,0.6,0.4,1,0.6,1.1c0.2,0.1,0.3,0.1,0.3,0.1c0.2,0.2,0.6,0.3,1.1,0.1c0.5-0.1,0.8-0.2,0.8-0.2c0.2-0.2,0.6-0.3,1.1-0.3
				c-0.1,0,0.1,0,0.6,0c0.5,0,0.8-0.1,1.1-0.1c1.3,0.4,1.9,0.5,1.8,0.5c0,0,1-0.1,3-0.2c0.5,0,1.2-0.1,2-0.1c0.8,0,1.2-0.2,1.1-0.6
				c0,0-0.1-0.2-0.3-0.7c-0.2-0.5-0.2-0.8-0.2-0.8c-0.3-0.2-0.6-1.1-1-2.7c-0.3-1.6-0.5-2.6-0.6-3c-0.4-1.2-1.1-4.9-2.3-11.1
				c-0.5-1.8-0.8-2.6-1-2.5c-1.3-6-1.9-9-1.7-8.9c-0.1-0.5-0.5-2-1.1-4.3c-0.6-2.3-1.3-4.8-2-7.4c-0.7-2.6-1.3-5-1.8-7.1
				c-0.5-2.1-0.7-3.2-0.7-3.3c-0.1-0.1-0.2-0.6-0.3-1.5c-0.1-0.9-0.2-1.4-0.2-1.5c-1.1-2-2.2-6.7-3.4-14.2c-0.7-1-1-1.7-0.9-2.3
				c0-0.3-0.2-0.4-0.6-0.4c0.2,0-0.4-0.1-1.9-0.2c-1.5-0.1-2.2-0.2-2.2-0.2c-0.7,0-1.5,0.1-2.2,0.1c-0.8,0-1.4,0.1-1.9,0.1
				c-3.7,0.6-5.5,1-5.4,1c-0.2-0.1-0.4-0.2-0.6-0.1c0.1-0.3-0.2-0.4-0.9-0.4c-0.7,0-1.2,0-1.6-0.1C284,193.3,283.9,194,284,195.3
				 M267.9,193.5c-0.6,0-0.8,0-0.7,0c-0.3,0-1.1,0-2.4,0c-1.3,0-1.9,0-1.8,0.1c-0.1-0.1-1.4-0.2-3.8-0.2s-3.5,0-3.3,0
				c-0.6,0-1.9,0.1-3.7,0.1c-0.3,0-0.9,0.1-1.8,0.1c-0.8,0.1-1.2,0.1-0.9,0.1c-1.1,0.1-3.5,0.2-7.3,0.5c-3.8,0.2-5.7,0.4-5.6,0.4
				c-0.1-0.1-0.4-0.2-0.8-0.4c0,0.5,0.1,1.3,0.2,2.4c0.1,1.1,0.1,1.5,0.1,1.3c0.1,1.7,0.2,3.7,0.4,6.2c0.2,2.5,0.2,3.7,0.2,3.6
				c0,0.1,0.1,1.4,0.3,3.9c0,0,0,0.3,0.2,0.8c0.2,0.5,0.3,0.8,0.3,0.7c0,0.5,0,1.3-0.2,2.6c-0.2,1.3-0.3,1.8-0.3,1.5l0.1,1
				c0.6,0.4,0.8,1.8,0.7,4.3c-0.1,2.5-0.1,3.7-0.1,3.7c0.1,2,0.3,4.6,0.6,7.7c0.3,3.1,0.4,4.7,0.4,4.6c0,0.1,0.1,1,0.4,2.7
				c0,0.6,0.1,1.3,0.3,2.3c0.2,0.9,0.3,1.2,0.2,0.8c0.1,1,0.1,3.1,0,6.4c0,3.2-0.1,4.9-0.1,4.8c0.1,0.1,0.3,1.7,0.7,4.6
				c0.3,2.9,0.5,4.2,0.5,3.8c0,0.3,0.1,0.8,0.3,1.4c0.2,0.6,0.3,0.9,0.3,0.9c-0.1,0.1-0.1,0.6-0.3,1.5c-0.1,0.9-0.2,1.3-0.1,1.3
				c0.3,0.1,0.4,0.2,0.2,0.3c-0.1,0.1,0.1,0.1,0.8,0.1c-0.3,0-0.1,0.1,0.8,0.1c0.8,0.1,1.1,0.1,0.8,0.1c0.6,0,1.7,0,3.1,0
				c2.2-0.1,5.1-0.3,8.8-0.6c3.7-0.2,5.5-0.4,5.5-0.4c0.5,0,1.3-0.1,2.6-0.4c0.2,0,0.7-0.1,1.5-0.2c0.8-0.1,1.1-0.2,1-0.2
				c0.6,0,2-0.1,4.4-0.1s3.5,0,3.5,0c0-0.7-0.1-2.6-0.3-5.7c-0.1-3.1-0.2-4.7-0.2-4.7c0.3-0.3,0.2-0.7-0.1-1.3
				c-0.3-0.5-0.5-0.8-0.4-0.8c-0.1,0-0.3,0-0.5,0c-0.3,0-0.3,0-0.3,0c-0.4,0-1,0.2-1.6,0.4c-0.6,0.2-0.9,0.4-0.9,0.4
				c-0.1,0-0.4,0.1-1.1,0.2c-0.7,0.1-1,0.2-0.9,0.1c-0.6,0-0.8,0.1-0.8,0.1c-0.1-0.1-0.3-0.1-0.8-0.2c-1.3,0.1-3.1,0.2-5.4,0.3
				c-2.2,0.1-3.3,0.1-3.2,0.1c-0.5,0-1.1,0.1-1.9,0.1c-0.8,0.1-1.1,0.1-1,0.1l-0.8,0.1l-0.2-0.2c-0.2-0.1-0.3-0.3-0.3-0.6
				c0-0.1,0-0.5,0-1s0-0.8-0.1-0.7c0.2-1.4,0.1-3.4-0.3-6.1c-0.4-2.7-0.6-3.9-0.5-3.7c0-0.1-0.3-2.8-1-8.2c0.1,0,0.3,0,0.4,0
				c0.2,0,0.3,0,0.4,0c0.2,0,0.4,0,0.9-0.1c0.4,0,0.6,0,0.5,0c0.2,0,0.5,0,0.9-0.1c0.5,0,0.7,0,0.6,0c1.1-0.6,4.9-1,11.4-1.1
				c1-1.3,1.4-2.5,1.1-3.8c-0.3-1.3-0.5-2.4-0.6-3.5c0-0.5-0.2-1.3-0.6-2.5c-0.4-1.2-0.5-1.8-0.4-1.8c-0.9,0.1-2.2,0.1-3.9,0.3
				c-1.8,0.1-2.6,0.2-2.5,0.2c-0.3,0-0.7,0-1.3,0.1c-0.6,0-0.8,0.1-0.7,0c-0.2,0-0.4,0-0.8,0.1s-0.6,0-0.5,0
				c-0.2,0.4-1.1,0.5-2.6,0.4c-1.5-0.1-2.2-0.1-2.1-0.1c-0.4,0-0.6-0.1-0.6-0.4c-0.2-1.5-0.4-3.2-0.5-5.3c-0.1-2.1,0-3.8,0.3-5.1
				c0.1-0.3,0-1-0.4-2.1c-0.3-1.1-0.4-1.7-0.4-1.8c0-0.1-0.1-0.3-0.1-0.8c0-0.5,0-0.7,0-0.6c0-0.1,0-0.4-0.1-1
				c0.1,0.1,0.3,0.2,0.6,0.1c0.5,0.1,0.7,0.1,0.6,0.1c0.2-0.3,0.9-0.4,1.9-0.4c1.1,0.1,1.6,0.1,1.6,0.2c0.1,0.2,0.5,0.3,1.1,0.3
				c0.6,0,0.9,0,1,0c1.1-0.9,2.9-1.4,5.2-1.4c2.3,0,3.4,0,3.3,0c0.6,0,1.5-0.1,2.5-0.2c1-0.1,1.5-0.1,1.4-0.1c0.3,0,0.6,0,0.9,0.2
				c0.2,0.2,0.3,0,0.3-0.6c0-0.7-0.1-2.5-0.2-5.2c-0.1-2.7-0.2-4.1-0.3-4.2c-0.3-1.4-0.5-2.4-0.5-3.1
				C268.8,193.5,268.5,193.4,267.9,193.5 M210.8,209.6c0.5,0,1.1-0.1,1.9-0.1c0.7,0,1.1-0.1,1-0.1c0.1,0,0.4,0,1,0.1
				c0.1,0.1,0.4,0.2,1,0.3c0.1,0,0.3,0.1,0.6,0.3c0.2,0.2,0.4,0.4,0.7,0.5c0.3,0.2,0.4,0.2,0.4,0.2c0.6,0.5,0.8,0.6,0.8,0.4
				c0,0.4,0.2,0.8,0.6,1.1c0,0.1,0.1,0.2,0.2,0.5c0.1,0.2,0.1,0.2,0.1,0.1c0,0.1,0.1,0.3,0.3,0.5c0.2,0.3,0.3,0.3,0.3,0.3
				c0,0.3,0.1,0.6,0.2,1c0.1,0.4,0.1,0.5,0.1,0.4c0,0.1,0,0.4,0.1,1c0,0.4,0.1,0.8,0.1,1.3c0,0.5,0,0.7,0,0.6c0,0.4,0.1,0.6,0.1,0.6
				c0.3,0.1,0.5,0.6,0.6,1.3c0.1,0.8,0.2,1.3,0.2,1.6c0,0,0,0.2,0.1,0.6s0,0.5-0.2,0.4c0.1,0.4,0.1,1.1-0.1,2.3s-0.3,1.7-0.2,1.7
				c0,0.1,0,0.2,0,0.3c0,0.1,0,0.2,0,0.1c0,0.2,0,0.4-0.1,0.6c-0.4,0.5-0.4,0.8-0.2,0.8c-0.2,0.1-0.3,0.2-0.5,0.4
				c-0.1,0.2-0.2,0.3,0,0.3c-0.1,0-0.3,0.3-0.7,0.8c0,0.1-0.2,0.2-0.4,0.4c-0.2,0.2-0.4,0.2-0.4,0.2c-0.5,0.5-0.7,0.7-0.8,0.7
				c-0.5,0.3-0.8,0.5-0.7,0.5c-0.5,0.2-0.8,0.2-0.8,0.3c-0.1,0.1-0.3,0.2-0.6,0.2c-0.1,0-0.9,0.1-2.3,0.2c-1.5,0.2-2.2,0.2-2.2,0.2
				c0-0.1,0-0.3,0-0.5c0-0.2,0-0.3,0-0.2c0-0.3,0-0.4,0-0.4c-0.1-0.9-0.1-2,0-3.4s0.1-1.9,0.1-1.7c0-0.1,0-0.4-0.1-0.8
				c0-0.4,0-0.6,0-0.6c-0.2-0.2-0.3-0.6-0.3-1.4c0-0.7-0.1-1.9-0.1-3.7c0-0.4-0.1-1.7-0.3-3.9c-0.2-2.2-0.2-3.3-0.1-3.2
				c-0.2-0.1-0.3-0.6-0.3-1.3c0-0.7,0-1.2,0.1-1.4C209.9,209.8,210.3,209.6,210.8,209.6 M196.1,201c-0.1,1.1-0.1,1.7-0.1,1.6
				c0,0.2,0,0.5,0.1,0.9c0,0.4,0,0.6,0,0.5c0.1,2,0.3,4.4,0.4,7.1c0.1,2.7,0.2,4,0.2,3.9c0.1,1.1,0.2,2.4,0.5,3.8
				c0.3,1.4,0.4,2,0.4,1.8c0.1,1.2-0.1,2.9-0.4,5.3c-0.4,2.4-0.2,4.1,0.5,5.2c-0.1-0.2-0.2,0.5-0.1,1.9c0.1,1.4,0.2,3.1,0.4,4.9
				c0.2,1.8,0.4,3.5,0.6,5.1c0.2,1.6,0.3,2.4,0.4,2.4c0,0,0,0.5,0.1,1.7c0.3,0.5,0.5,1.9,0.5,4.1c0,2.2,0,3.4,0.1,3.4
				c-0.1,0-0.1,0.6-0.1,1.8c0,0,0,0.2-0.1,0.6c0,0.4-0.1,0.6-0.1,0.5c0,0.1,0,0.5,0.1,1.1c0,0.7,0.1,0.9,0,0.6
				c0.1,1.6,0.2,3.3,0.4,5.3c0.1,2,0.2,3,0.2,2.9c0,0.1,0,0.4,0.1,0.8c0,0.5,0,0.7,0.1,0.8c0-0.1,0,0.1,0,0.4c0,0.3,0,0.4,0,0.3
				c0.1,1.2,0.2,1.7,0.5,1.4c0.2,0.8,0.5,1.1,0.7,1.1c-0.1,0,0,0,0.1,0c0.1,0,0.3,0,0.4,0c0,0,1.7-0.2,5.2-0.8
				c0.1-0.1,0.2-0.2,0.4-0.2c0.5,0,1.1,0.1,2.1,0.4c0.9,0.3,1.5,0.4,1.9,0.2c-0.2-0.1,0.2-0.1,1,0c0.9,0.1,1.3,0,1.2-0.3
				c-0.3-0.2-0.5-0.7-0.7-1.5c-0.2-0.8-0.3-1.1-0.2-1c-0.1-0.6-0.1-2,0.1-4.2c0.2-2.2,0.2-3.3,0.2-3.4c0-0.2,0-0.5,0.1-0.9
				c0-0.4,0.1-0.6,0.1-0.7c0,0-0.3-1.2-0.7-3.8c-0.2-2.4-0.3-4.6-0.4-6.5c-0.1-2-0.3-4-0.4-6.1c0,0.1,0-0.1,0-0.6c0-0.5,0-0.7,0-0.6
				c0.2,0,0.5,0,0.8-0.1c0.3,0,0.6,0,1-0.1c-0.1,0,0.4,0.1,1.3,0.3c0.9,0.2,1.4,0.3,1.4,0.2c0.1-0.1,0.4-0.1,0.6,0.1
				c0.3,0.2,0.4,0.3,0.4,0.2c0,0,0.2,0.1,0.5,0.2c0,0,0.4,0.2,1.4,0.6c1,0.4,1.5,0.7,1.5,0.9c0-0.3,0.2-0.1,0.6,0.9
				c0.4,0.9,0.6,1.2,0.7,0.9c0.4,0.6,0.5,0.8,0.3,0.7c-0.2-0.1-0.3-0.2-0.2-0.2c0.3,0.1,0.6,1.1,1.1,3.1c0,0.3,0,0.7,0.1,1.1
				s0,0.7,0.1,0.9c0-0.2,0,0,0,0.6c0,0.6,0,0.8,0.1,0.5c-0.1,0.4-0.1,0.9-0.1,1.3c0-0.1,0.1,0.1,0.3,0.6c0.2,0.6,0.3,0.8,0.3,0.7
				c0,1.7,0,2.4,0,2.4c-0.1-0.1-0.2,0.1-0.1,0.5c0,0.4,0,0.6,0,0.4c0,0.2,0,0.6,0.1,1.2c-0.1,0.2-0.2,0.5-0.2,1c0-0.1,0,0.4,0.1,1.4
				c0.1,1,0.2,1.4,0.3,1.3c0,0.4,0.1,1.3,0.4,2.7c0.3,1.5,0.4,2.2,0.3,2.2c-0.1-0.2,0.1,0.2,0.8,1.1c0.7,0.9,0.9,1.3,0.7,1.3
				c0.2,0,0.4,0,0.5,0c0.2,0,0.3,0,0.5,0c-0.1,0,0.4,0,1.5-0.1c1.1-0.1,1.6-0.1,1.6-0.1c0.1,0,2.9-0.3,8.4-0.9
				c-1.3-2.3-2-3.9-1.9-4.8c0-0.9-0.2-2.4-0.8-4.4c0.3,0.1,0.3-0.6,0.1-2.1c-0.2-1.5-0.4-3.2-0.7-5.1c-0.3-1.9-0.6-3.6-0.9-5.2
				c-0.3-1.6-0.4-2.5-0.4-2.6c-0.1-0.1-0.2-0.6-0.5-1.4c0.4-0.1,0-1.2-1.2-3.2c-1.2-2.1-1.9-3.2-2-3.3c-0.1-0.1-1.3-1-3.7-2.8
				c0.1,0,0.3-0.1,0.6-0.3c2.1,0.1,3.7-1.7,4.6-5.6c0.9-3.9,1.5-6.5,1.7-7.9c0.4-2.6,0.2-4.8-0.5-6.6c-0.7-1.8-1.2-3.8-1.3-6
				c0,0.1-0.1-0.2-0.4-0.9c-0.3-0.7-0.5-1.2-0.7-1.5c-0.9-1.5-1.7-2.4-2.4-2.8c-0.7-0.4-1-0.6-1-0.6c0-0.1-0.3-0.5-0.9-1.3
				c0-0.1-1-0.7-3-1.7c-2.1-1-3.1-1.5-3.1-1.3c0,0-0.1-0.1-0.5-0.2c-0.3-0.2-1.5-0.2-3.7-0.1c0.2,0,0,0-0.5,0.1
				c-0.6,0-0.7,0.1-0.6,0.1c-0.2-0.4-2.2-0.4-6-0.3c-3.8,0.2-5.7,0.2-5.8,0.2c-1.8-0.4-2.8-0.5-3.2-0.3c-0.4,0.2-1.4,0.4-3.2,0.5
				C196.3,199.3,196.2,199.9,196.1,201 M189.3,223.5c3.2-0.3,4.7-0.5,4.4-0.5c0.2,0,0.3-0.8,0.3-2.3c-0.1-1.5-0.2-3.2-0.5-5.1
				c-0.2-1.9-0.6-3.7-1-5.3c-0.4-1.7-0.9-2.6-1.3-2.8c-0.4-0.2-0.9-1.1-1.7-2.7c-0.8-1.6-2.8-3.1-6.1-4.5c-0.2,0-0.7-0.3-1.5-0.7
				s-1.3-0.6-1.4-0.6c0,0.1-1,0-3.1-0.2c-2.1-0.2-3.1-0.3-3-0.3c-0.1,0.3-0.8,0.4-2,0.3c-1.2,0-2.2,0.2-2.8,0.6
				c-0.1,0-0.6,0.3-1.5,1.1c-0.9,0.8-1.5,1.2-1.7,1.4c0.2,0-0.2,0.5-1.2,1.4c-0.9,0.9-1.4,1.3-1.3,1.3c-0.1,0-0.6,0.5-1.6,1.5
				c-1,1-1.6,1.8-1.8,2.2c0.1-0.1-0.2,0.6-1,2c0,0-0.4,1.6-1.1,4.6c-0.7,3.1-1,4.8-1,5.3c0.3,4.3,0.4,7.6,0.2,9.9
				c-0.1,2.3,0.2,5.6,1,10c0.4,2.2,0.6,4.2,0.4,5.8c-0.2,1.6,0.2,4,1.1,7.3c0.2,0.9,0.5,3.1,0.9,6.5c0.3,3.4,1.2,5.6,2.5,6.5
				c2,4,5.2,6.6,9.4,7.8c0.5,0.2,1.9,0.3,4.2,0.3c2.3,0,3.9,0,4.7-0.1c-0.1,0,0.2-0.1,0.9-0.2c0.6-0.1,1-0.3,1.1-0.5
				c0.8-0.2,1.4-0.4,1.5-0.5c0.1,0.1,1.2-0.5,3.2-1.8c2-1.3,3-2,3-2.2c-0.1-0.1,0.3-0.5,1.2-1.3c0,0.1,0.6-1.1,1.8-3.6
				s1.7-4.6,1.4-6.4c0,0,0-0.6,0-1.7c0-1.2,0-1.8,0.1-1.8c0.1,0.1,0.1-0.4,0-1.7c-0.1-1.2-0.3-2.6-0.5-4.1s-0.4-2.8-0.6-4.1
				c-0.2-1.2-0.3-1.8-0.3-1.7c0-0.1,0-0.4,0-1c0-0.6,0-1,0-1.3c0,0.1,0-0.1,0-0.6s-0.1-0.8-0.1-0.9c0,0-0.1-0.3-0.3-0.9
				c-0.2-0.6-0.3-0.9-0.3-0.9c0,0,0.2-0.5,0.4-1.6c0.2-1.1,0.3-1.5,0.3-1.2c0-0.8-0.7-1.3-2.2-1.5c0.1,0-0.4,0.1-1.5,0.1
				c-1.2,0.1-2.6,0.2-4.1,0.3c-1.5,0.2-2.8,0.3-4,0.4c-0.3,0-0.7,0-1.1,0.1c-0.5,0-0.7,0-0.6,0c-1.8,0.1-3.1,0.1-3.8,0.1
				c-0.7-0.1-1,0.5-0.9,1.6c0-0.1,0,0.4,0.1,1.4s0.1,1.9,0.2,2.5c0-0.1,0,0.1,0,0.4s0,0.6,0,0.8c0-0.3,0,0.4,0.2,1.9
				c0.1,1.6,0.3,2.2,0.5,1.7c0,0.1,0.8,0.1,2.3,0c1,0.2,1.6,0.3,1.6,0.3c0,0,0.1,0,0.4,0c0.3,0,0.4,0,0.3,0c0.6,3.9,1,5.9,1,5.8
				c0,2.4,0,3.4,0,3.1l0.1,1.2c0,0-0.2,1-0.6,2.8c-0.4,1.8-0.6,2.7-0.4,2.4c-1.8,1.2-2.7,1.7-2.7,1.7c-0.2,0-0.5,0-0.7,0
				c-0.2,0-0.5,0-0.7,0c0.1,0-0.2,0-0.8,0s-0.9,0-1,0c0,0-0.3-0.1-0.8-0.4c-0.5-0.3-0.8-0.5-0.8-0.5c0,0-0.6-1-1.9-3
				c-0.2-1.2-0.4-1.9-0.5-2c-0.3,0.2-0.5-0.9-0.5-3.3c0-2.4,0-3.8,0-4.1c0,0.2,0-0.2-0.1-1.2c-0.1-0.9-0.1-1.3-0.1-1.1
				c-0.1-0.8-0.3-1.7-0.7-2.7c-0.4-1.1-0.6-2.2-0.7-3.3c0,0.5,0-0.1-0.1-1.8c-0.1-1.7-0.2-3.5-0.3-5.6c-0.1-2.1-0.2-3.9-0.2-5.5
				c0-1.6,0-2.1,0.1-1.5c0,0-0.1-0.2-0.1-0.6c0-0.4,0-0.7,0-0.8c0,0.2,0-0.1-0.1-1c-0.1-0.8-0.1-1.1-0.1-1c0-0.1,0-0.4-0.1-0.8
				c0-0.4,0-0.8,0.1-1.1l0.2-0.9c-0.4-0.2-0.3-1.2,0.2-2.9c0.5-1.7,0.8-2.6,0.8-2.6c-0.2,0,0-0.2,0.5-0.6c0.5-0.4,0.9-0.6,1.2-0.7
				c0.8-0.7,2.3-1.1,4.3-1.3c0.8-0.1,1.3-0.1,1.6-0.1c0.3,0,0.6,0.2,1.1,0.7c0.3-0.2,0.7,0.7,1.3,2.6c0.6,1.9,0.9,2.9,1.1,3
				c0.1,1.8,0.2,2.7,0.2,2.7c0.1,1.1,0,1.8-0.3,2.2c0-0.1,0,0.1,0.1,0.5c0,0.4,0,0.6,0.1,0.6C183.6,223.9,186.1,223.8,189.3,223.5"
				/>
		</g>
		<g>
			<path class="st1" d="M818.9,199.7c-0.3,0.1-0.3,2.1,0,6c0.3,3.9,0.4,5.8,0.4,5.8c0,0.6,0.2,2.6,0.3,5.9c0.2,3.3,0.5,5,0.8,5
				c0.1,0.1,0.2,0.5,0.2,1.4c0,0.9,0.1,1.4,0.1,1.6c0,0-0.1,1.4-0.2,4.3c-0.1,2.9-0.2,4.4-0.2,4.3c0.3-0.1,0.6,0.6,0.7,2
				c0.1,1.4,0.2,2.1,0.2,2.1c0.1,0.9,0.2,3.6,0.4,8c0.2,4.4,0.6,6.9,1.3,7.5c0.2,5.3,0.3,8.5,0.4,9.6c0,0-0.1,0.6-0.1,1.9
				c-0.1,1.3-0.2,1.9-0.2,1.8c-0.4,0.3-0.5,2.1-0.1,5.5c0.7,0,3-0.2,6.7-0.4c3.8-0.2,5.6-0.4,5.6-0.6c0,0.1,0,0,0-0.3
				c0-0.3,0-0.4,0-0.3c0-0.2-0.2-1.2-0.4-2.9c0-0.6-0.1-2.1-0.3-4.5c-0.1-2.4-0.3-4.9-0.5-7.5c-0.2-2.6-0.3-5-0.5-7
				c-0.1-2.1-0.2-3.2-0.2-3.2c0,0-0.1-1.1-0.3-3.3c-0.2-2.2-0.4-4.6-0.6-7.3c-0.2-2.6-0.4-5.1-0.6-7.3c-0.2-2.2-0.2-3.3-0.2-3.3
				c0.1,0,0.2,0.2,0.3,0.5c0.6,0.6,0.8,0.9,0.8,0.9c0,0.1,0.4,1,1.1,2.8c0.8,1.8,1.2,2.7,1.2,2.6c0.4,0.1,0.9,1.3,1.7,3.5
				c0.7,2.3,1.1,3.4,1.1,3.3c0,0.1,0.2,0.5,0.6,1.5c0.4,0.9,0.6,1.5,0.6,1.6c0,0,0.2,0.8,0.7,2.3c0.5,1.5,1.1,3.2,1.7,5
				c0.6,1.8,1.2,3.5,1.7,5c0.5,1.5,0.8,2.3,0.8,2.2c0,0,0.1,0.8,0.4,2.2c0.3,1.4,0.5,2.1,0.6,2.1c0,0,0.1,0.6,0.4,1.7
				c0.3,1.1,0.4,1.6,0.4,1.6c0,0.8,0.4,2.2,1.3,4c0.9,1.9,1.3,2.8,1.3,2.7c1.7,0.6,4.2,0.8,7.6,0.4c3.4-0.3,5-0.6,5-0.9
				c-0.2,0.2-0.3-0.7-0.4-2.7c-0.1-2-0.1-4.3-0.1-6.8c0-2.5,0-4.9,0-7.2c0-2.2,0-3.5-0.1-3.9c-0.3-1.2-0.5-3.1-0.8-5.9
				c-0.3-2.7-0.6-5.5-0.8-8.3c-0.2-2.8-0.4-5.2-0.6-7.3c-0.2-2.1-0.2-3.2-0.2-3.2c0.3-0.2,0.3-1.1,0.2-2.6c-0.3-0.5-0.5-1.9-0.7-4.2
				c-0.2-2.2-0.4-4.7-0.5-7.3c-0.1-2.6-0.3-5.2-0.3-7.6c-0.1-2.4-0.2-4.1-0.2-5c0-0.7-0.8-1-2.1-0.8c-1.4,0.2-2,0.3-2,0.3
				c-0.5,0-1.2,0.1-2,0.1c-0.8,0.1-1.2,0.1-1.1,0.1c-0.8,0.1-1.5,0-2.1-0.3c-0.6-0.2-0.9-0.3-1.1-0.3c-1.4,0.2-2,0.5-1.8,1.1
				c0.2,0.5,0.3,0.8,0.4,0.8c0.3,0.1,0.5,1.4,0.7,3.9c0.2,2.5,0.4,5.3,0.5,8.3c0.1,3.1,0.3,6,0.4,8.7c0.1,2.8,0.3,4.5,0.5,5.1
				c0.1,0.5,0.3,2.3,0.6,5.3c0.3,3,0.4,4.4,0.4,4.4c0,0.1-0.1,0.4-0.3,1.1c-0.2,0.7-0.2,1-0.1,1c0-0.3-0.1-0.6-0.4-0.9
				c-0.3-0.4-0.4-0.5-0.3-0.4c0-0.2-0.4-1.5-1.1-3.8c-0.7-2.3-1.6-4.8-2.5-7.5c-0.9-2.7-1.7-5.2-2.5-7.4c-0.8-2.2-1.1-3.4-1.1-3.4
				c0.1-0.7-0.5-3-1.7-6.7c-1.2-3.7-2-6.1-2.3-7.1c-0.4-1.1-1.7-1.4-3.8-0.8c-2.1,0.6-3,0.7-2.7,0.3c-0.2-0.5-1.5-0.6-3.8-0.3
				c-2.3,0.3-3.7,0.4-4.1,0.4C820.2,199.4,819.4,199.5,818.9,199.7 M792.8,212.1c0.5,0,1.1-0.1,1.9-0.1c0.7,0,1.1-0.1,1-0.1
				c0.1,0,0.4,0,1,0.1c0.1,0.1,0.4,0.2,1,0.3c0.1,0,0.3,0.1,0.6,0.3c0.2,0.2,0.4,0.4,0.7,0.5c0.3,0.2,0.4,0.2,0.4,0.2
				c0.6,0.5,0.8,0.6,0.8,0.4c0,0.4,0.2,0.8,0.6,1.1c0,0.1,0.1,0.2,0.2,0.5c0.1,0.2,0.1,0.2,0.1,0.1c0,0.1,0.1,0.3,0.3,0.5
				c0.2,0.3,0.3,0.3,0.3,0.3c0,0.3,0.1,0.6,0.2,1c0.1,0.4,0.1,0.5,0.1,0.4c0,0.1,0,0.4,0.1,1c0,0.4,0.1,0.8,0.1,1.3
				c0,0.5,0,0.7,0,0.6c0,0.4,0.1,0.6,0.1,0.6c0.3,0.1,0.5,0.6,0.6,1.3c0.1,0.8,0.2,1.3,0.2,1.6c0,0,0,0.2,0.1,0.6
				c0,0.4,0,0.5-0.2,0.4c0.1,0.4,0.1,1.1-0.1,2.3s-0.3,1.7-0.2,1.7c0,0.1,0,0.2,0,0.3c0,0.1,0,0.2,0,0.1c0,0.2,0,0.4-0.1,0.6
				c-0.4,0.5-0.4,0.8-0.2,0.8c-0.2,0.1-0.3,0.2-0.5,0.4s-0.2,0.3,0,0.3c-0.1,0-0.3,0.3-0.7,0.8c0,0.1-0.2,0.2-0.4,0.4
				c-0.2,0.2-0.4,0.2-0.4,0.2c-0.5,0.5-0.7,0.7-0.8,0.7c-0.5,0.3-0.8,0.5-0.7,0.5c-0.5,0.2-0.8,0.3-0.8,0.3
				c-0.1,0.1-0.3,0.2-0.6,0.2c-0.1,0-0.9,0.1-2.3,0.2c-1.5,0.2-2.2,0.2-2.2,0.2c0-0.1,0-0.3,0-0.5c0-0.2,0-0.3,0-0.2
				c0-0.3,0-0.4,0-0.4c-0.1-0.9-0.1-2,0-3.4c0-1.4,0.1-2,0.1-1.7c0-0.1,0-0.4-0.1-0.8c0-0.4,0-0.6,0-0.6c-0.2-0.2-0.3-0.6-0.3-1.4
				c0-0.7-0.1-1.9-0.1-3.7c0-0.4-0.1-1.7-0.3-3.9s-0.2-3.3-0.1-3.2c-0.2-0.1-0.3-0.6-0.3-1.3c0-0.7,0-1.2,0.1-1.4
				C792,212.2,792.4,212.1,792.8,212.1 M778.2,203.5c-0.1,1.1-0.1,1.7-0.1,1.6c0,0.2,0,0.5,0.1,0.9c0,0.4,0,0.6,0,0.5
				c0.1,2.1,0.3,4.4,0.4,7.1c0.1,2.7,0.2,4,0.2,3.9c0.1,1.1,0.2,2.4,0.5,3.8c0.3,1.4,0.4,2,0.4,1.8c0.1,1.2-0.1,2.9-0.4,5.3
				c-0.4,2.4-0.2,4.1,0.5,5.2c-0.1-0.2-0.2,0.5-0.1,1.9c0.1,1.4,0.2,3.1,0.4,4.9c0.2,1.8,0.4,3.5,0.6,5.1c0.2,1.6,0.3,2.4,0.4,2.4
				c0,0,0,0.5,0.1,1.7c0.3,0.5,0.5,1.9,0.5,4.1c0,2.2,0,3.4,0.1,3.4c-0.1,0-0.1,0.6-0.1,1.8c0,0,0,0.2-0.1,0.6
				c0,0.4-0.1,0.6-0.1,0.5c0,0.1,0,0.5,0.1,1.1c0,0.7,0.1,0.9,0,0.6c0.1,1.6,0.2,3.3,0.4,5.3c0.1,2,0.2,3,0.2,2.9
				c0,0.1,0,0.4,0.1,0.8c0,0.5,0,0.7,0.1,0.8c0-0.1,0,0.1,0,0.4c0,0.3,0,0.4,0,0.3c0.1,1.2,0.2,1.7,0.5,1.4c0.2,0.8,0.5,1.1,0.7,1.1
				c-0.1,0,0,0,0.1,0c0.1,0,0.3,0,0.4,0c0,0,1.7-0.2,5.2-0.8c0.1-0.1,0.2-0.2,0.4-0.2c0.5,0,1.1,0.1,2.1,0.4
				c0.9,0.3,1.5,0.4,1.9,0.2c-0.2-0.1,0.2-0.1,1,0c0.9,0.1,1.3,0,1.2-0.3c-0.3-0.2-0.5-0.7-0.7-1.5c-0.2-0.8-0.3-1.1-0.2-1
				c-0.1-0.6-0.1-2,0.1-4.2c0.2-2.2,0.2-3.3,0.2-3.4c0-0.2,0-0.5,0.1-0.9c0-0.4,0.1-0.6,0.1-0.7c0,0-0.3-1.2-0.7-3.8
				c-0.2-2.4-0.3-4.6-0.4-6.5c-0.1-2-0.3-4-0.4-6.1c0,0.1,0-0.1,0-0.6c0-0.5,0-0.7,0-0.6c0.2,0,0.5,0,0.8-0.1c0.3,0,0.6,0,1-0.1
				c-0.1,0,0.4,0.1,1.3,0.3c0.9,0.2,1.4,0.3,1.4,0.2c0.1-0.1,0.4-0.1,0.6,0.1c0.3,0.2,0.4,0.3,0.4,0.2c0,0,0.2,0.1,0.5,0.2
				c0,0,0.4,0.2,1.4,0.6c1,0.4,1.5,0.7,1.5,0.9c0-0.3,0.2-0.1,0.6,0.9c0.4,0.9,0.6,1.2,0.7,0.9c0.4,0.6,0.5,0.8,0.3,0.7
				c-0.2-0.1-0.3-0.2-0.2-0.2c0.3,0.1,0.6,1.1,1.1,3.1c0,0.3,0,0.7,0.1,1.1s0,0.7,0.1,0.9c0-0.2,0,0,0,0.6c0,0.6,0,0.8,0.1,0.5
				c-0.1,0.4-0.1,0.9-0.1,1.3c0-0.1,0.1,0.1,0.3,0.6c0.2,0.6,0.3,0.8,0.3,0.7c0,1.7,0,2.4,0,2.4c-0.1-0.1-0.2,0.1-0.1,0.5
				c0,0.4,0,0.6,0,0.4c0,0.2,0,0.6,0.1,1.2c-0.1,0.2-0.2,0.5-0.2,1c0-0.1,0,0.4,0.1,1.4c0.1,1,0.2,1.4,0.3,1.3
				c0,0.4,0.1,1.3,0.4,2.7c0.3,1.5,0.4,2.2,0.3,2.2c-0.1-0.2,0.1,0.2,0.8,1.1c0.7,0.9,0.9,1.3,0.7,1.3c0.2,0,0.4,0,0.5,0
				c0.2,0,0.3,0,0.5,0c-0.1,0,0.4,0,1.5-0.1c1.1-0.1,1.6-0.1,1.6-0.1c0.1,0,2.9-0.3,8.4-0.9c-1.3-2.3-2-3.9-1.9-4.8
				c0-0.9-0.2-2.4-0.8-4.4c0.3,0.1,0.3-0.6,0.1-2.1c-0.2-1.5-0.4-3.2-0.7-5.1c-0.3-1.9-0.6-3.6-0.9-5.2c-0.3-1.6-0.4-2.5-0.4-2.6
				c-0.1-0.1-0.2-0.6-0.5-1.4c0.4-0.1,0-1.2-1.2-3.2c-1.2-2.1-1.9-3.2-2-3.3c-0.1-0.1-1.3-1-3.7-2.8c0.1,0,0.3-0.1,0.6-0.3
				c2.1,0.1,3.7-1.7,4.6-5.6c0.9-3.9,1.5-6.5,1.7-7.9c0.4-2.6,0.2-4.8-0.5-6.6c-0.7-1.8-1.2-3.8-1.3-6c0,0.1-0.1-0.2-0.4-0.9
				c-0.3-0.7-0.5-1.2-0.7-1.5c-0.9-1.5-1.7-2.4-2.4-2.8c-0.7-0.4-1-0.6-1-0.6c0-0.1-0.3-0.5-0.9-1.3c0-0.1-1-0.7-3-1.7
				c-2.1-1-3.1-1.5-3.1-1.3c0,0-0.1,0-0.5-0.2c-0.3-0.2-1.5-0.2-3.7-0.1c0.2,0,0,0-0.5,0.1c-0.6,0.1-0.7,0.1-0.6,0.1
				c-0.2-0.4-2.2-0.4-6-0.3c-3.8,0.2-5.7,0.3-5.8,0.2c-1.8-0.4-2.8-0.5-3.2-0.3c-0.4,0.2-1.4,0.4-3.2,0.5
				C778.4,201.8,778.3,202.4,778.2,203.5 M764.2,236.6c0,0.5,0,1.4,0,2.7c0,0.3,0.1,0.8,0.1,1.4c0,0.6,0.1,0.9,0,0.7
				c0.1,1.8,0.1,3.6,0.1,5.4c-0.1,1.8-0.1,2.7-0.1,2.7c0,0.4,0.1,1,0.2,1.7c0.1,0.7,0.2,1,0.1,0.9c0,0.5,0.2,1.1,0.4,1.8
				c0.2,0.7,0.4,1,0.4,0.9c0,0.2,0,0.5-0.1,0.9c-0.1,0.3-0.1,0.8-0.1,1.3c0.1,0.7,0,1.2-0.1,1.4c0,0.2,0,0.4,0,0.8
				c0,0.4,0,0.6-0.1,0.6c0.1,1-0.1,1.7-0.6,2.1c-0.5,0.4-0.6,0.7-0.5,0.9c0,0-0.2,0.4-0.6,1c-0.4,0.6-0.6,0.9-0.4,0.8
				c-0.5,0.6-0.9,0.8-1.1,0.9c-0.2,0-0.4,0-0.7,0.1c-0.3,0.1-0.3,0.1-0.2,0.1c-0.6,0-1.4,0-2.4,0c-0.3,0-0.7-0.2-1.2-0.6
				c-0.5-0.4-0.7-0.6-0.7-0.4c0-0.5-0.1-0.7-0.2-0.6c-0.7-0.3-1.1-0.9-1.3-1.9c-0.2-1-0.3-1.5-0.4-1.5c-0.5,0-0.8-1.3-1-3.9
				s-0.3-3.9-0.2-3.9l-0.1-0.8c0.2,0,0.2-1,0-2.9c-0.2-0.1-0.4-0.6-0.6-1.5c-0.2-0.9-0.2-1.3-0.2-1.3c0-0.5-0.1-1.4-0.3-2.7
				c-0.1-1.4-0.2-2-0.2-1.9c0-0.5,0-1.6,0.2-3.2c-0.1-0.8-0.2-2.2-0.5-4.1c0-0.2,0-0.6-0.1-1.2c0-0.6-0.1-0.8,0-0.7
				c-0.1-1.6-0.2-3.8-0.2-6.8c-0.1-2.9-0.1-4.4-0.1-4.3c0,0,0.1-0.3,0.2-0.7c0.1-0.4,0.1-0.7,0.1-0.7c0.2,0.1,0.2-0.1,0.2-0.4
				c0-0.4-0.1-0.5-0.1-0.5c0.1-0.1,0.2-0.3,0.4-0.8c0-0.1,0.1-0.4,0.2-0.8c0.2-0.5,0.2-0.6,0.1-0.5c0.1-0.2,0.2-0.4,0.2-0.4
				c0.4-0.3,0.6-0.6,0.6-0.6c0.4-0.6,0.6-0.9,0.5-0.8c0.1,0,0.3-0.2,0.7-0.6c0.4-0.4,0.5-0.5,0.4-0.5c0.2,0,0.2-0.1,0.2-0.2
				c0.2-0.2,0.3-0.3,0.5-0.4c0.1-0.1,0.2-0.1,0.1,0c0.1-0.2,0.3-0.2,0.4-0.2c0.2,0,0.3-0.1,0.2-0.2c0.6,0,1.1,0,1.7,0.1
				c0.6,0.1,0.7,0.1,0.5,0.2c0.3,0,0.4,0,0.2,0.2c0,0,0.2,0.2,0.6,0.4c0.4,0.3,0.5,0.3,0.3,0.1c0.3,0.3,0.6,0.6,0.9,1.1
				c0.5,0.5,0.7,0.7,0.6,0.7c0.3,0,0.4,0.1,0.4,0.2c0,0.2,0.1,0.6,0.3,1.2c0.2-0.1,0.3,0.2,0.2,0.8c0.3,0,0.5,0.6,0.7,1.7
				c0.2,1.1,0.3,1.6,0.3,1.6l0.1,0.8c0,0.4,0,0.5,0,0.3c0.2,2.8,0.3,5.1,0.3,6.8c0,1.8,0.2,4,0.7,6.7
				C764,235.7,764.1,236,764.2,236.6 M745.6,205.8c-1,1.3-1.5,1.9-1.5,2c-0.4,0.2-0.8,0.8-1.4,1.9l-0.5,1.7c0,0.4-0.2,0.9-0.7,1.8
				c0,0.1-0.2,0.6-0.6,1.5c-0.4,1-0.7,1.5-0.7,1.6c0.2-0.2-0.1,0.5-0.8,2c-0.4,4.1-0.6,6.8-0.5,7.9c0.6,2.5,0.9,4,0.9,4.6
				c0-0.2,0,0.3,0,1.7c0,1.3,0,2.8,0,4.6c0,1.7,0.1,3.3,0.2,4.9c0.1,1.5,0.2,2.4,0.4,2.5c0,0,0.1,1.4,0.3,4.1
				c0.2,2.7,0.2,4.3,0.1,4.9c0,0,0.1,0.7,0.3,2.1c0.2,1.4,0.3,2.2,0.4,2.4c0-0.2,0,0,0.1,0.4c0.1,0.4,0.1,0.9,0.2,1.4
				c0,0,0.3,1.4,0.8,4.2c0.5,2.8,1.8,4.9,3.7,6.3c0.7,0.5,1.5,1.1,2.3,1.9c-0.2,0.2,2,1.7,6.6,4.4l0.8-0.1c-0.1,0,0,0,0.3,0.1
				c0.3,0,0.4,0.1,0.3,0.1c0,0,0.5,0.1,1.5,0.2c1,0.1,1.5,0.2,1.5,0.2c-0.1-0.1,0.2-0.1,0.9-0.1c0.7,0,1.1-0.1,1.3-0.1
				c-0.1,0,0.2,0,0.8-0.1c0.6,0,1.1-0.1,1.5-0.1c0,0,0.3-0.1,0.9-0.2c0.6-0.1,1.1-0.2,1.4-0.4c0.2,0.1,0.6-0.2,1.4-1.1
				c-0.1,0.1,0.2-0.1,0.9-0.7c3.2-2,4.8-3.1,5-3.3c-0.1,0.1,0,0,0.4-0.4c0.3-0.4,0.5-0.6,0.6-0.7c0,0.1,0.1-0.1,0.3-0.6
				c0.2-0.4,0.5-0.7,0.8-0.7c-0.5,0-0.4-0.1,0.1-0.3c0,0.1,0.1-0.3,0.4-1.2c0.3-0.9,0.4-1.3,0.4-1.3c0,0.2,0.1,0.1,0.3-0.3
				c0.1-0.4,0.2-0.6,0.3-0.7c-0.2-0.1,0-0.6,0.7-1.5c0,0,0-0.1,0.1-0.4c0.1-0.3,0.1-0.6,0.2-0.7c0-0.6,0.1-1.2,0.4-1.8
				c0.1,0,0.1-0.2,0-0.4c-0.1-0.2,0-0.4,0.2-0.6c-0.1,0-0.1-0.2-0.1-0.7c0-0.5,0-0.8,0-0.9c0,0.2-0.1-0.9-0.3-3.2
				c-0.2-2.3-0.4-4.2-0.5-5.6c0,0.2,0-0.1-0.1-1c-0.1-0.8,0-1.4,0.1-1.8c0,0-0.1-0.7-0.1-2.2c0-1.5-0.1-2.9-0.2-4.3
				c0,0-0.1-0.4-0.2-1.2c-0.1-0.8-0.2-1.7-0.3-2.5c0,0.2,0,0-0.1-0.7c-0.1-0.6-0.2-1.1-0.2-1.5c0,0.2,0-0.6-0.1-2.2
				c-0.1-1.7-0.2-2.4-0.1-2.3c0-0.2,0-0.7-0.1-1.2c0-0.6-0.1-1.1-0.1-1.6c0-0.1-0.1-0.5-0.2-1.1c-0.1-0.7-0.2-1.1-0.2-1.3
				c0,0.2,0-0.2,0-1.2c0-1,0-1.5,0-1.6c0.1,0.5-0.1-0.8-0.5-4.2c-0.5-3.3-1-5.3-1.6-5.9c0.1,0.1-0.4-0.6-1.4-2.1
				c-1-1.6-1.8-2.5-2.2-2.7c0.1,0.1-1-0.6-3.5-2.2c-2.4-1.5-4.4-2.2-5.9-2.2c-0.5-0.2-0.9-0.3-1-0.3c-0.3-0.3-0.5-0.4-0.8-0.4
				c0.2,0-0.3,0-1.4,0c-1.1,0-2.1,0-2.9,0.1c0.1,0-0.2,0-1,0.1c-0.8,0-1.3,0.1-1.6,0.1c-0.2,0.3-0.4,0.4-0.6,0.4
				c-0.2,0-0.3,0.1-0.5,0.3c-0.1,0.1-0.3,0.2-0.4,0.2c0.1,0,0,0-0.3,0.1c-0.3,0.1-0.5,0.2-0.6,0.4c0.1-0.2-0.2,0-1,0.4
				c-0.2,0-0.3,0-0.5,0.1C747.4,203.8,746.6,204.5,745.6,205.8 M713.8,232.3c0.3-0.7,0.4-1.9,0.1-3.7c-0.3-1.8-0.5-3-0.6-3.8l0-0.5
				c0-0.6,0-1.6,0.2-2.8c0.1-1.2,0-1.9-0.2-1.9c-0.5-0.9-0.5-1.8-0.1-2.8v0l4.6-0.3c0.6,0.1,1,0.3,1.2,0.5c0.2,0.2,0.5,0.2,0.8,0.2
				c0.7,0.1,1.4,0.5,2.1,1.2c0.2,0.2,0.5,0.6,0.8,1.1c0.5,1,0.8,2.2,0.9,3.6c0.1,1.4,0.3,2.6,0.5,3.6c0.3,1.2,0.3,3.3,0.2,6.2
				c0.1,1.3-0.2,2.8-0.8,4.7c-0.7,0.8-1.2,1.1-1.5,1.1c-0.1,0.1-0.5,0.4-1.4,0.8c0,0-0.2,0.1-0.5,0.2c-0.3,0.1-0.4,0.2-0.4,0.2
				c-0.4,0-1.2,0.1-2.5,0.3c-1.3,0.2-1.9,0.3-1.9,0.3c-0.6-0.4-0.9-0.4-0.8-0.1c0-0.4-0.1-1.4-0.2-3.1c-0.1-1.7-0.2-3-0.3-3.9
				L713.8,232.3z M701.3,206.1c-0.3,0-0.7,0-1,0.1c0,1.2-0.1,2.3-0.2,3.3c-0.1,1-0.1,1.8,0,2.5c0-0.2,0,0.7,0.1,2.8
				c0.1,2.1,0.1,3.1,0.1,3.1c0.1,1.6,0.5,4.4,1.1,8.4c0,0.4,0,1.4,0,3.2c-0.1,1.8-0.1,2.7-0.2,2.8c0.5,0.8,0.8,3.2,0.8,7.2
				c0,4,0,5.8,0,5.5c0,0.3,0,0.7,0.1,1.1c0,0.5,0,0.7,0,0.6c0,0.3,0,0.7,0.1,1.4c0,0.6,0.1,0.9,0.1,0.8c0,0.7,0.1,1.7,0.2,3
				c0.1,1.2,0.1,1.8,0.1,1.7c0,0.1,0.2,1.6,0.6,4.6c0.4,2.9,0.6,4.5,0.7,4.6c-0.6,0-0.7,1.2-0.3,3.4c0.4,2.2,0.6,3.5,0.5,3.8
				c-0.4,1.5-0.4,4.8-0.1,9.8c0.3,0.3,0.5,0.4,0.6,0.4l0.8-0.1l0,0.5l11.5-0.8l-0.1-1.2c0.2,0,0.3,0,0.6,0c0.2-0.9,0.3-1.3,0.2-1.3
				c0-0.1-0.1-0.4-0.1-1c0-0.6,0-0.9,0-0.9c-0.2-0.1-0.5-0.3-0.7-0.8c-0.2-0.5-0.3-0.7-0.2-0.7c-0.1-0.2-0.1-0.5-0.1-0.7l-0.5-7.4
				c-0.1-2.7-0.1-5.1-0.1-7.4c0-2.3,0-3.2,0.1-2.7c0-0.1-0.1-0.5-0.2-1.3c-0.1-0.8-0.1-1.2-0.1-1.3c0.3,0,0.6-0.1,1.1-0.1
				c0.5,0,0.6-0.1,0.6-0.1c0.3,0,0.5,0,0.7,0c0.2,0,0.4,0,0.7,0c0.4,0,1-0.3,1.9-0.7c11.2-0.8,16.5-7.1,15.8-19.1
				c0.1-1.1,0.2-2.6,0.2-4.6c-0.1-1.7-0.4-3.5-0.8-5.2c-0.4-5.8-2.1-10.1-5.1-12.9v0l0,0c-2.5-2.3-5.7-3.5-9.8-3.8l-1.9-0.3
				c-0.3,0-0.8,0-1.7-0.1c-0.3-0.1-0.7-0.2-1.3-0.1c-0.6,0.1-0.9,0.1-0.8,0.1c-1.4,0.1-3.5,0.2-6.1,0.2c-2.7,0.1-4,0.1-3.9,0.1
				c-0.4,0-0.8,0.1-1.4,0.1c-0.6,0-1.1,0.1-1.5,0.1C702,206,701.6,206,701.3,206.1"/>
		</g>
		<g>
			<path class="st1" d="M239.9,289.9c0.7,1.6,1.1,2.4,1.2,2.5c0.1,0.4,0.6,1.5,1.5,3.5c0.9,2,1.9,4.1,2.9,6.3c1,2.2,2,4.2,2.8,6
				c0.8,1.8,1.3,2.7,1.3,2.6c0,0,0.3,0.8,0.9,2.3c0.6,1.5,1.3,3.1,2,4.9c0.7,1.8,1.4,3.4,2.1,4.8c0.7,1.4,1,2.1,1.1,2
				c0.1-0.1,0,0-0.2,0.3c-0.2,0.3-0.3,0.4-0.2,0.3c-0.1,0.8-0.6,2.5-1.5,5c-1,2.5-1.4,4.1-1.4,4.8c0-0.6-0.4,0.3-1,2.7
				c-0.6,2.5-0.9,3.7-0.9,3.7c-0.1,0.1-0.2,0.5-0.3,1.2c-0.1,0.7-0.2,1.1-0.2,1.2c0.1,1.8-0.7,4.7-2.5,8.8c-1.8,4.1-2.5,6.5-2.3,7.3
				c0.1,0.4-0.2,1-0.8,1.9c-0.6,0.9-0.8,1.3-0.8,1.3c0.2-0.2,1.1-0.3,2.5-0.4c0.1,0,2.1-0.3,6-1c0.2,0,1,0,2.3,0.1
				c1.3,0.1,1.9,0.1,1.9,0c0.6-0.7,1.4-3.2,2.3-7.5c0.9-4.3,1.6-6.5,1.9-6.7c0.2-0.4,0.3-1.1,0.4-2.1c1.4-6.8,2.2-10.2,2.3-10.2
				c0-0.1,0.1-0.6,0.3-1.4c0,0.1,0.1,0.3,0.5,0.8c0.6,0.6,1.4,2,2.3,4.4c0.9,2.3,1.9,4.8,2.8,7.4c1,2.6,1.9,5,2.7,7.1
				c0.8,2.1,1.5,3.2,1.9,3.3c0,0,0,0.2,0,0.6c0.1,0.4,0.1,0.6,0.2,0.7c0.9,1.2,1.4,2.1,1.3,2.8c-0.1,0.7-0.2,1-0.4,0.8
				c0.2,0.3,0.6,0.4,1,0.4c0,0,2-0.3,6-0.9c4-0.6,6.1-0.9,6.1-0.8c-0.1,0-0.5-0.7-1.2-2.1c-0.7-1.4-1.1-2.1-1.1-2.2
				c0,0-0.3-0.6-0.8-2c-0.5-1.3-1-2.3-1.3-3c0,0-0.7-1.4-2-4.2c-1.3-2.8-2.3-4.8-2.9-5.9c-0.3-0.5-0.8-1.7-1.6-3.6
				c-0.8-1.8-1.5-3.8-2.3-5.8c-0.8-2-1.5-3.8-2.1-5.4c-0.6-1.6-0.9-2.4-1-2.5c-0.8-0.5-1-0.9-0.7-1.2c0.4-0.3,0.4-0.4,0.2-0.5
				c0-0.1,0.1-0.4,0.4-0.8c0,0,0.3-1.2,1.1-3.7c0.8-2.5,1.5-4.3,2.3-5.5c0.6-1,1.5-3.7,2.7-8.1c1.2-4.4,1.8-7,1.8-7.7
				c0-1.2,0.5-3.3,1.8-6.2c1.2-2.9,1.6-4.5,1.2-4.7c-0.1,0.1-0.4,0.1-0.8-0.1c-0.2,0.2-2.1,0.4-5.8,0.7s-5.5,0.4-5.5,0.4
				c-0.1,0.1-0.1,0.4-0.2,0.8c-0.1,0.1-1.3,3.9-3.6,11.4c0,1-0.4,2.7-1,5.2c-0.7,2.4-1,3.7-0.9,3.8c0.1,0.8-0.2,2.1-0.8,3.7
				c-0.6,1.6-0.9,2.5-0.9,2.5c0-0.2-0.6-1.7-1.7-4.6c-1.1-2.9-1.6-4.4-1.4-4.5c-0.2-0.2-0.5-0.7-0.8-1.5c-0.4-0.8-0.6-1.3-0.6-1.6
				c-0.2-1.2-1.7-5.3-4.3-12.4c-2,0.1-4.2,0.2-6.7,0.3c-2.5,0.1-4.9,0.1-7,0.1C240.3,289.9,240.1,289.9,239.9,289.9 M235.2,289.2
				c-0.6,0-0.8,0-0.7,0c-0.3,0-1.1,0-2.4,0c-1.3,0-1.9,0-1.8,0.1c-0.1-0.1-1.4-0.2-3.8-0.2c-2.4,0-3.5,0-3.3,0
				c-0.6,0-1.9,0.1-3.7,0.1c-0.3,0-0.9,0.1-1.8,0.1c-0.8,0.1-1.2,0.1-0.9,0.1c-1.1,0.1-3.5,0.2-7.3,0.5c-3.8,0.2-5.7,0.4-5.6,0.4
				c-0.1-0.1-0.4-0.2-0.8-0.4c0,0.5,0.1,1.3,0.2,2.4c0.1,1.1,0.1,1.5,0.1,1.3c0.1,1.7,0.2,3.7,0.4,6.2c0.2,2.5,0.2,3.7,0.2,3.6
				c0,0.1,0.1,1.4,0.3,3.9c0,0,0,0.3,0.2,0.8c0.2,0.5,0.3,0.8,0.3,0.7c0,0.5,0,1.3-0.2,2.6c-0.2,1.3-0.3,1.8-0.3,1.5l0.1,1
				c0.6,0.4,0.8,1.8,0.7,4.3c-0.1,2.5-0.1,3.7-0.1,3.7c0.1,2,0.3,4.6,0.6,7.7c0.3,3.1,0.4,4.7,0.4,4.6c0,0.1,0.1,1,0.4,2.7
				c0,0.6,0.1,1.3,0.3,2.3c0.2,0.9,0.3,1.2,0.2,0.8c0.1,1,0.1,3.1,0,6.4s-0.1,4.9-0.1,4.8c0.1,0.1,0.3,1.7,0.7,4.6
				c0.4,2.9,0.5,4.2,0.5,3.8c0,0.3,0.1,0.8,0.3,1.4c0.2,0.6,0.3,0.9,0.3,0.9c-0.1,0.1-0.1,0.6-0.3,1.5c-0.1,0.9-0.2,1.3-0.1,1.3
				c0.3,0.1,0.4,0.2,0.2,0.3c-0.1,0.1,0.1,0.1,0.8,0.1c-0.3,0,0,0.1,0.8,0.1c0.8,0.1,1.1,0.1,0.8,0.1c0.6,0,1.7,0,3.1,0
				c2.2-0.1,5.1-0.3,8.8-0.6s5.5-0.4,5.5-0.4c0.5,0,1.3-0.2,2.6-0.4c0.2,0,0.7-0.1,1.5-0.2c0.8-0.1,1.1-0.2,1-0.2
				c0.6,0,2-0.1,4.4-0.1c2.4,0,3.5,0,3.5,0c0-0.7-0.1-2.6-0.3-5.7c-0.1-3.1-0.2-4.7-0.2-4.7c0.3-0.3,0.2-0.7-0.1-1.3
				c-0.3-0.5-0.5-0.8-0.4-0.8c-0.1,0-0.3,0-0.5,0c-0.3,0-0.3,0-0.3,0c-0.4,0-1,0.2-1.6,0.4c-0.6,0.2-0.9,0.4-0.9,0.4
				c-0.1,0-0.4,0.1-1.1,0.2c-0.7,0.1-1,0.2-0.9,0.1c-0.5,0-0.8,0.1-0.8,0.1c-0.1-0.1-0.3-0.1-0.8-0.2c-1.3,0.1-3.1,0.2-5.4,0.3
				c-2.2,0.1-3.3,0.1-3.2,0.1c-0.5,0-1.1,0.1-1.9,0.1c-0.8,0.1-1.1,0.1-1,0.1l-0.8,0.1l-0.2-0.2c-0.2-0.1-0.3-0.3-0.3-0.6
				c0-0.2,0-0.5,0-1s0-0.8-0.1-0.7c0.2-1.4,0.1-3.4-0.3-6.1s-0.6-3.9-0.5-3.7c0-0.1-0.3-2.8-1-8.2c0.1,0,0.3,0,0.4,0
				c0.2,0,0.3,0,0.4,0c0.2,0,0.4,0,0.9-0.1c0.4,0,0.6,0,0.5,0c0.2,0,0.5,0,0.9-0.1c0.5,0,0.7,0,0.6,0c1.1-0.6,4.9-1,11.4-1.1
				c1-1.3,1.4-2.5,1.1-3.8c-0.3-1.3-0.5-2.4-0.6-3.5c0-0.5-0.2-1.3-0.6-2.5c-0.4-1.2-0.5-1.8-0.4-1.8c-0.9,0.1-2.2,0.1-3.9,0.3
				c-1.8,0.1-2.6,0.2-2.5,0.2c-0.3,0-0.7,0-1.3,0.1c-0.6,0-0.8,0.1-0.7,0c-0.2,0-0.4,0-0.8,0.1c-0.4,0-0.6,0-0.5,0
				c-0.2,0.4-1.1,0.5-2.6,0.4c-1.5-0.1-2.2-0.1-2.1-0.1c-0.4,0-0.6-0.1-0.6-0.4c-0.2-1.5-0.4-3.2-0.5-5.3c-0.1-2.1,0-3.8,0.3-5.1
				c0.1-0.3,0-1-0.3-2.1c-0.3-1.1-0.4-1.7-0.4-1.8c0-0.1-0.1-0.3-0.1-0.8s0-0.7,0-0.6c0-0.1,0-0.4-0.1-1c0.1,0.1,0.3,0.2,0.6,0.1
				c0.5,0.1,0.7,0.1,0.6,0.1c0.2-0.3,0.9-0.4,1.9-0.4c1.1,0.1,1.6,0.1,1.6,0.2c0.1,0.2,0.5,0.3,1.1,0.2c0.6,0,0.9,0,1,0
				c1.1-0.9,2.9-1.4,5.2-1.4c2.3,0,3.4,0,3.3,0c0.6,0,1.5-0.1,2.5-0.2c1-0.1,1.5-0.1,1.4-0.1c0.3,0,0.6,0,0.9,0.2
				c0.2,0.2,0.3,0,0.3-0.6c-0.1-0.7-0.1-2.5-0.2-5.2c-0.1-2.7-0.2-4.1-0.3-4.2c-0.3-1.4-0.5-2.4-0.5-3.1
				C236.1,289.2,235.8,289.2,235.2,289.2 M187.1,305.7c0.8,1,1.3,2.2,1.6,3.5c0.3,1.3,0.5,2.5,0.6,3.5c0.1,1.1,0.5,1.6,1.2,1.5
				c1.2-0.1,3.2,0,5.9,0.2c0.2,0,1-0.1,2.3-0.3c1.4-0.1,2.3-0.2,2.8-0.3c0.2,0,0.3-0.1,0.5-0.1c0,0,0-0.2,0-0.7c0-0.1-0.1-0.5-0.2-1
				c-0.1-1-0.3-3-0.8-5.9c0-0.4-0.2-0.9-0.5-1.6c-0.3-0.7-0.4-1.1-0.3-1.1c-0.1,0.2-0.2,0-0.2-0.6c-0.1-0.6-0.1-0.9-0.1-0.7
				c0,0-0.2-0.4-0.7-1c-0.5-0.6-0.8-1.2-0.8-1.6c0-0.1-0.5-0.7-1.4-1.7c-0.9-1-1.4-1.5-1.5-1.5c-0.6-0.5-0.9-0.9-1-0.9
				c-0.4,0.1-1.5-0.2-3.3-1.1c-1.8-0.8-3-1.4-3.7-1.6c-0.5-0.1-1.3-0.2-2.3-0.2c-1,0-1.5-0.1-1.4-0.1c0,0-0.8,0.1-2.3,0.1
				c-1.1,0.4-1.7,0.6-1.8,0.7c-5,1.7-8.1,3.3-9.4,4.7c0,0-0.5,1-1.3,3.1c-0.8,2-1.2,3-1.2,3c0,0.6-0.1,1-0.3,1.1
				c-0.2,0.1-0.3,0.2-0.3,0.3c0,0-0.1,0.7-0.2,2.1c-0.1,1.4-0.3,2.1-0.5,2.1c0.1,6.7,0.8,11.6,2.2,14.5c0.1,0.2,0.8,0.9,2.3,2.2
				s3,2.6,4.7,4.2c1.7,1.5,3.4,3,4.9,4.3c1.5,1.4,2.4,2.3,2.7,2.6c0,0,0.7,0.7,2.1,2.2c1.4,1.4,2.4,2.3,2.8,2.5
				c0.2,0.1,0.6,1,1.4,2.5s1.2,2.4,1.2,2.3c0.6,5.2,0,8.3-2,9.2c-2.1,1.1-4.2,0.8-6.1-0.8c-0.3-0.8-0.5-1.3-0.7-1.6
				c0.1,0.2,0-0.1-0.3-0.7c-0.4-0.7-0.6-1-0.8-1.1c0,0,0-0.3-0.1-1.1c0-0.8-0.1-1.3-0.1-1.7c0,0.3,0-0.1-0.1-1.1
				c-0.1-1-0.1-1.4-0.1-1.2c0-0.2,0-0.6-0.1-1.1c0-0.5-0.1-0.9-0.1-1.1c0,0.3-0.2,0.4-0.8,0.3c0,0-1,0.1-2.9,0.4
				c-1.9,0.3-3.3,0.5-4.1,0.6c0,0-0.6,0-1.9,0.1c-1.3,0.1-2,0.3-2,0.5c0,0-0.1,0-0.4,0.1c-0.3,0.1-0.4,0.1-0.4,0.1
				c0.2,0.4,0.4,0.7,0.4,0.8c0.1,0.8,0.1,1.3,0.1,1.4c0-0.1,0,0.3,0.1,1.4s0.1,1.5,0.1,1.3c0.2,2.9,0.4,4.6,0.7,4.9s0.7,1.6,1.3,3.9
				c0.4,1.4,2.9,3.4,7.5,6c0,0,0.5,0.1,1.5,0.4c1,0.3,1.6,0.5,1.7,0.5c0,0,0.2,0.1,0.7,0.1c0.5,0,0.8,0.1,0.9,0.1c0,0,0.6,0,1.9-0.1
				c1.3,0,2,0,1.9,0c1.8-0.1,3.7-0.4,5.8-0.8c2.1-0.4,3.8-1.3,5.1-2.8c1.9-1.9,2.8-2.8,2.9-2.8c0-0.1,0.4-1.4,1.4-4
				c1-2.6,1.5-4.2,1.7-5c0.2-1.3,0.4-2.4,0.5-3.5c0.1-1,0.2-2.3,0.1-3.7c0,0-0.3-0.9-0.9-2.7c-0.6-1.8-1.3-3-2-3.5
				c-0.1,0-0.6-0.7-1.6-1.9c-0.9-1.2-1.8-2.1-2.4-2.7c-0.8-0.6-1.8-1.7-3.1-3.2c-1.3-1.6-1.9-2.3-1.9-2.3c-0.4,0.3-2.1-1-5.2-3.9
				c-3.1-2.9-5.1-4.8-5.8-6c-0.1-0.5-0.2-0.8-0.5-1.1c-0.3-0.2-0.4-0.4-0.3-0.3c-0.2-0.2-0.5-0.7-0.9-1.7c-0.4-1-0.6-1.7-0.6-2.2
				c0,0.1,0-0.4,0-1.4c0-1,0-1.5,0-1.4c-0.2-0.2-0.1-0.9,0.2-2.2c0.3-1.3,0.7-2.1,1.3-2.5c-0.4,0.2-0.2,0,0.5-0.6c0.7-0.6,1-1,1-1.1
				c-0.1,0,0-0.1,0.4-0.2c0.4-0.1,0.6-0.2,0.7-0.2C185,304.3,186.4,304.7,187.1,305.7"/>
		</g>
		<g>
			<path class="st1" d="M818.5,286.7c0.7,1.6,1.1,2.4,1.2,2.5c0.1,0.4,0.6,1.5,1.5,3.5c0.9,2,1.9,4.1,2.9,6.3c1,2.2,2,4.2,2.8,6
				c0.8,1.8,1.3,2.7,1.3,2.6c0,0,0.3,0.8,0.9,2.3c0.6,1.5,1.3,3.1,2,4.9c0.7,1.8,1.4,3.4,2.1,4.8c0.7,1.4,1,2.1,1.1,2
				c0.1-0.1,0,0-0.2,0.3c-0.2,0.3-0.3,0.4-0.2,0.3c-0.1,0.8-0.6,2.5-1.5,5c-1,2.5-1.4,4.1-1.4,4.8c0-0.6-0.4,0.3-1,2.7
				c-0.6,2.5-0.9,3.7-0.9,3.7c-0.1,0.1-0.2,0.5-0.3,1.2c-0.1,0.7-0.2,1.1-0.2,1.2c0.1,1.8-0.7,4.7-2.5,8.8c-1.8,4.1-2.5,6.5-2.3,7.3
				c0.1,0.4-0.2,1-0.8,1.9c-0.6,0.9-0.8,1.3-0.8,1.3c0.2-0.2,1.1-0.3,2.5-0.4c0.1,0,2.1-0.3,6-1c0.2,0,1,0,2.3,0.1
				c1.3,0.1,1.9,0.1,1.9,0c0.6-0.7,1.4-3.2,2.3-7.5c0.9-4.3,1.6-6.5,1.9-6.7c0.2-0.4,0.3-1.1,0.4-2.1c1.4-6.8,2.2-10.2,2.3-10.2
				c0-0.1,0.1-0.6,0.3-1.4c0,0.1,0.1,0.3,0.5,0.8c0.6,0.6,1.4,2,2.3,4.4c0.9,2.3,1.9,4.8,2.8,7.4c1,2.6,1.9,5,2.7,7.1
				c0.8,2.1,1.5,3.2,1.9,3.3c0,0,0,0.2,0,0.6c0.1,0.4,0.1,0.6,0.2,0.7c0.9,1.2,1.4,2.1,1.3,2.8c-0.1,0.7-0.2,1-0.4,0.8
				c0.2,0.3,0.6,0.4,1,0.4c0,0,2-0.3,6-0.9c4-0.6,6.1-0.9,6.1-0.8c-0.1,0-0.5-0.7-1.2-2.1c-0.7-1.4-1.1-2.1-1.1-2.2
				c0,0-0.3-0.6-0.8-2c-0.5-1.3-1-2.3-1.3-3c0,0-0.7-1.4-2-4.2c-1.3-2.8-2.3-4.8-2.9-5.9c-0.3-0.5-0.8-1.7-1.6-3.6
				c-0.8-1.8-1.5-3.8-2.3-5.8c-0.8-2-1.5-3.8-2.1-5.4c-0.6-1.6-0.9-2.4-1-2.5c-0.8-0.5-1-0.9-0.7-1.2c0.4-0.3,0.4-0.4,0.2-0.5
				c0-0.1,0.1-0.4,0.4-0.8c0,0,0.3-1.2,1.1-3.7c0.8-2.5,1.5-4.3,2.3-5.5c0.6-1,1.5-3.7,2.7-8.1c1.2-4.4,1.8-7,1.8-7.7
				c0-1.2,0.5-3.3,1.8-6.2c1.2-2.9,1.6-4.5,1.2-4.7c-0.1,0.1-0.4,0.1-0.8-0.1c-0.2,0.2-2.1,0.4-5.8,0.7c-3.7,0.3-5.5,0.4-5.5,0.4
				c-0.1,0.1-0.1,0.4-0.2,0.8c-0.1,0.1-1.3,3.9-3.6,11.4c0,1-0.4,2.7-1,5.2c-0.7,2.4-1,3.7-0.9,3.8c0.1,0.8-0.2,2.1-0.8,3.7
				c-0.6,1.6-0.9,2.5-0.9,2.5c0-0.2-0.6-1.7-1.7-4.6c-1.1-2.9-1.6-4.4-1.4-4.5c-0.2-0.2-0.5-0.7-0.8-1.5c-0.4-0.8-0.6-1.3-0.6-1.6
				c-0.2-1.2-1.7-5.3-4.3-12.4c-2,0.1-4.2,0.2-6.7,0.3c-2.5,0.1-4.9,0.1-7,0.1C818.8,286.7,818.7,286.7,818.5,286.7 M813.7,286
				c-0.6,0-0.8,0-0.7,0c-0.3,0-1.1,0-2.4,0c-1.3,0-1.9,0-1.8,0.1c-0.1-0.1-1.4-0.2-3.8-0.2s-3.5,0-3.3,0c-0.6,0-1.9,0.1-3.7,0.1
				c-0.3,0-0.9,0.1-1.8,0.1c-0.8,0.1-1.2,0.1-0.9,0.1c-1.1,0.1-3.5,0.2-7.3,0.5c-3.8,0.2-5.7,0.4-5.6,0.4c-0.1-0.1-0.4-0.2-0.8-0.4
				c0,0.5,0.1,1.3,0.2,2.4c0.1,1.1,0.1,1.5,0.1,1.3c0.1,1.7,0.2,3.7,0.4,6.2c0.2,2.5,0.2,3.7,0.2,3.6c0,0.1,0.1,1.4,0.3,3.9
				c0,0,0,0.3,0.2,0.8c0.2,0.5,0.3,0.8,0.3,0.7c0,0.5,0,1.3-0.2,2.6c-0.2,1.3-0.3,1.8-0.3,1.5l0.1,1c0.6,0.4,0.8,1.8,0.7,4.3
				c-0.1,2.5-0.1,3.7-0.1,3.7c0.1,2,0.3,4.6,0.6,7.7c0.3,3.1,0.4,4.7,0.4,4.6c0,0.1,0.1,1,0.4,2.7c0,0.6,0.1,1.3,0.3,2.3
				c0.2,0.9,0.3,1.2,0.2,0.8c0.1,1,0.1,3.1,0,6.4c0,3.2-0.1,4.9-0.1,4.8c0.1,0.1,0.3,1.7,0.7,4.6c0.4,2.9,0.5,4.2,0.5,3.8
				c0,0.3,0.1,0.8,0.3,1.4c0.2,0.6,0.3,0.9,0.3,0.9c-0.1,0.1-0.1,0.6-0.3,1.5s-0.2,1.3-0.1,1.3c0.3,0.1,0.4,0.2,0.2,0.3
				c-0.1,0.1,0.1,0.1,0.8,0.1c-0.3,0,0,0.1,0.8,0.1c0.8,0.1,1.1,0.1,0.8,0.1c0.6,0,1.7,0,3.1,0c2.2-0.1,5.1-0.3,8.8-0.6
				c3.7-0.2,5.5-0.4,5.5-0.4c0.5,0,1.3-0.2,2.6-0.4c0.2,0,0.7-0.1,1.5-0.2c0.8-0.1,1.1-0.2,1-0.2c0.6,0,2-0.1,4.4-0.1
				c2.4,0,3.5,0,3.5,0c0-0.7-0.1-2.6-0.3-5.7c-0.1-3.1-0.2-4.7-0.2-4.7c0.3-0.3,0.2-0.7-0.1-1.3c-0.3-0.5-0.5-0.8-0.4-0.8
				c-0.1,0-0.3,0-0.5,0c-0.3,0-0.3,0-0.3,0c-0.4,0-1,0.2-1.6,0.4c-0.6,0.2-0.9,0.4-0.9,0.4c-0.1,0-0.4,0.1-1.1,0.2
				c-0.7,0.1-1,0.2-0.9,0.1c-0.5,0-0.8,0.1-0.8,0.1c-0.1-0.1-0.3-0.1-0.8-0.2c-1.3,0.1-3.1,0.2-5.4,0.3c-2.2,0.1-3.3,0.1-3.2,0.1
				c-0.5,0-1.1,0.1-1.9,0.1c-0.8,0.1-1.1,0.1-1,0.1l-0.8,0.1l-0.2-0.2c-0.2-0.1-0.3-0.3-0.3-0.6c0-0.2,0-0.5,0-1
				c0-0.5,0-0.8-0.1-0.7c0.2-1.4,0.1-3.4-0.3-6.1c-0.4-2.7-0.6-3.9-0.5-3.7c0-0.1-0.3-2.8-1-8.2c0.1,0,0.3,0,0.4,0
				c0.2,0,0.3,0,0.4,0c0.2,0,0.4,0,0.9-0.1c0.4,0,0.6,0,0.5,0c0.2,0,0.5,0,0.9-0.1c0.5,0,0.7,0,0.6,0c1.1-0.6,4.9-1,11.4-1.1
				c1-1.3,1.4-2.5,1.1-3.8c-0.3-1.3-0.5-2.4-0.6-3.5c0-0.5-0.2-1.3-0.6-2.5c-0.4-1.2-0.5-1.8-0.4-1.8c-0.9,0.1-2.2,0.1-3.9,0.3
				c-1.8,0.1-2.6,0.2-2.5,0.2c-0.3,0-0.7,0-1.3,0.1c-0.6,0-0.8,0.1-0.7,0c-0.2,0-0.4,0-0.8,0.1c-0.4,0-0.6,0-0.5,0
				c-0.2,0.4-1.1,0.5-2.6,0.4c-1.5-0.1-2.2-0.1-2.1-0.1c-0.4,0-0.6-0.1-0.6-0.4c-0.2-1.5-0.4-3.2-0.5-5.3c-0.1-2.1,0-3.8,0.3-5.1
				c0.1-0.3,0-1-0.3-2.1c-0.3-1.1-0.4-1.7-0.4-1.8c0-0.1-0.1-0.3-0.1-0.8c0-0.5,0-0.7,0-0.6c0-0.1,0-0.4-0.1-1
				c0.1,0.1,0.3,0.2,0.6,0.1c0.5,0.1,0.7,0.1,0.6,0.1c0.2-0.3,0.9-0.4,1.9-0.4c1.1,0.1,1.6,0.1,1.6,0.2c0.1,0.2,0.5,0.3,1.1,0.2
				c0.6,0,0.9,0,1,0c1.1-0.9,2.9-1.4,5.2-1.4c2.3,0,3.4,0,3.3,0c0.6,0,1.5-0.1,2.5-0.2c1-0.1,1.5-0.1,1.4-0.1c0.3,0,0.6,0,0.9,0.2
				c0.2,0.2,0.3,0,0.3-0.6c-0.1-0.7-0.1-2.5-0.2-5.2c-0.1-2.7-0.2-4.1-0.3-4.2c-0.3-1.4-0.5-2.4-0.5-3.1
				C814.6,286,814.3,286,813.7,286 M765.7,302.5c0.8,1,1.3,2.2,1.6,3.5c0.3,1.3,0.5,2.5,0.6,3.5s0.5,1.6,1.2,1.5
				c1.2-0.1,3.2,0,5.9,0.2c0.2,0,1-0.1,2.3-0.3c1.4-0.1,2.3-0.2,2.8-0.3c0.2,0,0.3-0.1,0.5-0.1c0,0,0-0.2,0-0.7c0-0.1-0.1-0.5-0.2-1
				c-0.1-1-0.3-3-0.8-5.9c0-0.4-0.2-0.9-0.5-1.6c-0.3-0.7-0.4-1.1-0.3-1.1c-0.1,0.2-0.2,0-0.2-0.6c-0.1-0.6-0.1-0.9-0.1-0.7
				c0,0-0.2-0.4-0.7-1c-0.5-0.6-0.8-1.2-0.8-1.6c0-0.1-0.5-0.7-1.4-1.7c-0.9-1-1.4-1.5-1.5-1.5c-0.6-0.5-0.9-0.9-1-0.9
				c-0.4,0.1-1.5-0.2-3.3-1.1c-1.8-0.8-3-1.4-3.7-1.6c-0.5-0.1-1.3-0.2-2.3-0.2c-1,0-1.5-0.1-1.4-0.1c0,0-0.8,0.1-2.3,0.1
				c-1.1,0.4-1.7,0.6-1.8,0.7c-5,1.7-8.1,3.3-9.4,4.7c0,0-0.5,1-1.3,3.1c-0.8,2-1.2,3-1.2,3c0,0.6-0.1,1-0.3,1.1
				c-0.2,0.1-0.3,0.2-0.3,0.3c0,0-0.1,0.7-0.2,2.1c-0.1,1.4-0.3,2.1-0.5,2.1c0.1,6.7,0.8,11.6,2.2,14.5c0.1,0.2,0.8,0.9,2.3,2.2
				c1.4,1.3,3,2.6,4.7,4.2c1.7,1.5,3.4,3,4.9,4.3c1.5,1.4,2.4,2.3,2.7,2.6c0,0,0.7,0.7,2.1,2.2c1.4,1.4,2.4,2.3,2.8,2.5
				c0.2,0.1,0.6,1,1.4,2.5c0.8,1.6,1.2,2.4,1.2,2.3c0.6,5.2,0,8.3-2,9.2c-2.1,1.1-4.2,0.8-6.1-0.8c-0.3-0.8-0.5-1.3-0.7-1.6
				c0.1,0.2,0-0.1-0.3-0.7c-0.4-0.7-0.6-1-0.8-1.1c0,0,0-0.3-0.1-1.1c0-0.8-0.1-1.3-0.1-1.7c0,0.3,0-0.1-0.1-1.1
				c-0.1-1-0.1-1.4-0.1-1.2c0-0.2,0-0.6-0.1-1.1c0-0.5-0.1-0.9-0.1-1.1c0,0.3-0.2,0.4-0.8,0.3c0,0-1,0.1-2.9,0.4s-3.3,0.5-4.1,0.6
				c0,0-0.6,0-1.9,0.1c-1.3,0.1-2,0.3-2,0.5c0,0-0.1,0-0.4,0.1c-0.3,0.1-0.4,0.1-0.4,0.1c0.2,0.4,0.4,0.7,0.4,0.8
				c0.1,0.8,0.1,1.3,0.1,1.4c0-0.1,0,0.3,0.1,1.4c0.1,1.1,0.1,1.5,0.1,1.3c0.2,2.9,0.4,4.6,0.7,4.9c0.3,0.3,0.7,1.6,1.3,3.9
				c0.4,1.4,2.9,3.4,7.5,6c0,0,0.5,0.1,1.5,0.4s1.6,0.5,1.7,0.5c0,0,0.2,0.1,0.7,0.1c0.5,0,0.8,0.1,0.9,0.1c0,0,0.6,0,1.9-0.1
				c1.3,0,2,0,1.9,0c1.8-0.1,3.7-0.4,5.8-0.8c2.1-0.4,3.8-1.3,5.1-2.8c1.9-1.9,2.8-2.8,2.9-2.8c0-0.1,0.4-1.4,1.4-4
				c1-2.6,1.5-4.2,1.7-5c0.2-1.3,0.4-2.4,0.5-3.5c0.1-1,0.2-2.3,0.1-3.7c0,0-0.3-0.9-0.9-2.7c-0.6-1.8-1.3-3-2-3.5
				c-0.1,0-0.6-0.7-1.6-1.9c-0.9-1.2-1.8-2.1-2.4-2.7c-0.8-0.6-1.8-1.7-3.1-3.2c-1.3-1.6-1.9-2.3-1.9-2.3c-0.4,0.3-2.1-1-5.2-3.9
				c-3.1-2.9-5.1-4.8-5.8-6c-0.1-0.5-0.2-0.8-0.5-1.1c-0.3-0.2-0.4-0.4-0.3-0.3c-0.2-0.2-0.5-0.7-0.9-1.7c-0.4-1-0.6-1.7-0.6-2.2
				c0,0.1,0-0.4,0-1.4c0-1,0-1.5,0-1.4c-0.2-0.2-0.1-0.9,0.2-2.2c0.3-1.3,0.7-2.1,1.3-2.5c-0.4,0.2-0.2,0,0.5-0.6c0.7-0.6,1-1,1-1.1
				c-0.1,0,0-0.1,0.4-0.2c0.4-0.1,0.6-0.2,0.7-0.2C763.6,301.1,764.9,301.5,765.7,302.5"/>
		</g>
	</g>
</g>
</svg>
