<svg id="Layer_1" data-name="Layer 1" xmlns="http://www.w3.org/2000/svg" viewBox="0 0 221.53 40.58"><defs><style>.cls-1{fill:#333;}</style></defs><polygon class="cls-1" points="190.72 0 221.53 40.58 221.53 0 190.72 0"/><path class="cls-1" d="M116,16.77h-5.45V40.31h3.7V31.47H116c3.7,0,5.52-2,5.52-5.82V22.59c0-3.77-1.82-5.82-5.52-5.82m0,3.36c1.18,0,1.82.54,1.82,2.22v3.53c0,1.69-.64,2.23-1.82,2.23h-1.75v-8Zm18.84,20.18a6.89,6.89,0,0,1-.4-2.85V33.82c0-2.45-.6-4.2-2.45-5v-.06c1.64-.78,2.42-2.32,2.42-4.74V22.19c0-3.64-1.65-5.42-5.49-5.42h-5.58V40.31H127V30.73h1.28c1.68,0,2.42.81,2.42,3v3.7a7.2,7.2,0,0,0,.34,2.89Zm-6-20.18c1.32,0,1.89.74,1.89,2.42v2.33c0,1.88-.84,2.48-2.22,2.48H127V20.13Zm11.34,2.06c0-1.69.74-2.33,1.92-2.33s1.92.64,1.92,2.33V34.9c0,1.68-.74,2.32-1.92,2.32s-1.92-.64-1.92-2.32Zm-3.7,12.47c0,3.77,2,5.92,5.62,5.92s5.62-2.15,5.62-5.92V22.42c0-3.77-2-5.92-5.62-5.92s-5.62,2.15-5.62,5.92Zm12.83,5.65a14.55,14.55,0,0,0,1.78.07c2.79,0,5.31-1.21,5.31-5.92V16.77h-3.7v18c0,1.82-.94,2.25-2.11,2.25-.41,0-.88,0-1.28,0Zm13.09-20.18h6.4V16.77h-10.1V40.31h10.1V37h-6.4V30.06h5.08V26.69h-5.08Zm15.82,11.41V34.9c0,1.68-.74,2.29-1.92,2.29s-1.92-.61-1.92-2.29V22.19c0-1.69.74-2.33,1.92-2.33s1.92.64,1.92,2.33v2.52h3.5V22.42c0-3.77-1.89-5.92-5.52-5.92s-5.51,2.15-5.51,5.92V34.66c0,3.77,1.88,5.92,5.51,5.92s5.52-2.15,5.52-5.92V31.54Zm5-11.41H187V40.31h3.7V20.13h3.87V16.77H183.15Z"/><polygon class="cls-1" points="0 16.5 0 19.86 3.87 19.86 3.87 40.04 7.57 40.04 7.57 19.86 11.44 19.86 11.44 16.5 0 16.5"/><polygon class="cls-1" points="21.11 16.5 21.11 26.59 16.91 26.59 16.91 16.5 13.21 16.5 13.21 40.04 16.91 40.04 16.91 29.95 21.11 29.95 21.11 40.04 24.88 40.04 24.88 16.5 21.11 16.5"/><polygon class="cls-1" points="27.29 16.5 27.29 40.04 37.38 40.04 37.38 36.68 30.99 36.68 30.99 29.79 36.07 29.79 36.07 26.42 30.99 26.42 30.99 19.86 37.38 19.86 37.38 16.5 27.29 16.5"/><path class="cls-1" d="M46.16,40.31H56V37H49.86V16.77h-3.7Zm11.56,0h3.7V16.77h-3.7Zm11.77-9.75h1.68V34.9c0,1.68-.74,2.29-1.91,2.29s-1.92-.61-1.92-2.29V22.18c0-1.68.74-2.32,1.92-2.32s1.91.64,1.91,2.32v2.53h3.5V22.42c0-3.77-1.88-5.92-5.52-5.92s-5.51,2.15-5.51,5.92V34.66c0,3.77,1.88,5.92,5.51,5.92s5.52-2.15,5.52-5.92V27.2H69.49Zm11.08-.34h4.21V40.31h3.77V16.77H84.78V26.86H80.57V16.77h-3.7V40.31h3.7Zm9.75-10.09h3.87V40.31h3.7V20.13h3.87V16.77H90.32Z"/></svg>